<?xml version="1.0" encoding="utf-8"?>
<!-- Generator: Adobe Illustrator 24.0.1, SVG Export Plug-In . SVG Version: 6.00 Build 0)  -->
<svg version="1.1" id="Layer_1" xmlns="http://www.w3.org/2000/svg" xmlns:xlink="http://www.w3.org/1999/xlink" x="0px" y="0px"
	 viewBox="0 0 1920 1080" style="enable-background:new 0 0 1920 1080;" xml:space="preserve">
<style type="text/css">
	.st0{fill:#FEEEE5;stroke:#000000;stroke-miterlimit:10;}
	.st1{fill:#F5F6F6;}
	.st2{fill:#F5B18D;}
	.st3{opacity:0.1;fill:#010101;enable-background:new    ;}
	.st4{fill:#FFFFFF;}
	.st5{opacity:0.1;}
	.st6{fill:#010101;}
	.st7{fill:#384850;}
	.st8{fill:#273339;}
	.st9{fill:#465B65;}
	.st10{fill:#FAFBFC;}
	.st11{fill:#E6E6E5;}
	.st12{fill:#E0E1E0;}
	.st13{opacity:0.4;fill:#FFFFFF;enable-background:new    ;}
	.st14{opacity:0.2;fill:#010101;enable-background:new    ;}
	.st15{fill:#EBEBEB;}
	.st16{clip-path:url(#SVGID_2_);}
	.st17{fill:#F1F0F0;}
	.st18{fill:#4D4D4E;}
</style>
<rect y="0.7" class="st0" width="1920" height="1080.3"/>
<g id="freepik--Floor--inject-33">
	<g>
		<g>
			<path id="freepik--floor--inject-33_12_" class="st1" d="M319.6,785.1c118.7,61,311,61,429.7,0s118.7-159.8,0-220.8
				s-311-61-429.7,0S201,724.1,319.6,785.1z"/>
		</g>
	</g>
</g>
<g id="freepik--Plants--inject-33">
	<g>
		<g>
			<g id="freepik--plants--inject-33_19_">
				<path class="st2" d="M739.6,621.8c0.1-8.1,8.7-29.5,17.3-39.9s22.1-17.9,31.5-14.5c8.8,3.2,7.6,14.7-3.2,22.1
					c-10.8,7.5-27,16.8-32,29.9l-10.1,16.1L739.6,621.8z"/>
				<path class="st3" d="M739.6,621.8c0.1-8.1,8.7-29.5,17.3-39.9s22.1-17.9,31.5-14.5c8.8,3.2,7.6,14.7-3.2,22.1
					c-10.8,7.5-27,16.8-32,29.9l-10.1,16.1L739.6,621.8z"/>
				<path class="st4" d="M741.2,628.4c0.3,0,0.5-0.2,0.5-0.5c5.9-27.7,28.9-50,42.4-54.7c0.3-0.1,0.5-0.4,0.4-0.7l0,0
					c-0.1-0.3-0.4-0.5-0.8-0.4l0,0c-13.8,4.9-37.1,27.4-43.2,55.6c-0.1,0.3,0.1,0.6,0.5,0.7L741.2,628.4L741.2,628.4z"/>
				<path class="st2" d="M745,646.3c1.4-4.6,7.1-12,16.3-18.1c10.1-6.7,22.9-9.7,25.9-15c3.6-6.4-1.7-12.6-12-11.5
					s-28.6,14.8-31.9,35.9L745,646.3z"/>
				<path class="st4" d="M743.1,641.4c0.2,0,0.4-0.2,0.5-0.4c8.9-23.7,27.3-31.7,35.7-32.7c0.3,0,0.6-0.3,0.5-0.6l0,0
					c0-0.3-0.3-0.6-0.6-0.5l0,0c-9.3,1-27.6,9.3-36.7,33.4c-0.1,0.3,0,0.6,0.3,0.8C742.9,641.4,743,641.5,743.1,641.4z"/>
			</g>
			<g id="freepik--plants--inject-33_18_">
				<path class="st2" d="M341.6,698.8l9.9-5.7c0,0,4.8-26.2,1.2-48.8c-5-31.7-26.6-42.7-34.5-39.5s-9.7,12.5,4.5,30.9
					C331.1,646.5,341.8,669.4,341.6,698.8z"/>
				<g class="st5">
					<path class="st6" d="M341.6,698.8l9.9-5.7c0,0,4.8-26.2,1.2-48.8c-5-31.7-26.6-42.7-34.5-39.5s-9.7,12.5,4.5,30.9
						C331.1,646.5,341.8,669.4,341.6,698.8z"/>
				</g>
				<path class="st4" d="M345.2,686.3L345.2,686.3c-0.5,0-0.7-0.4-0.7-0.8l0,0c4.1-29.7-7.9-62.2-21.3-75.4c-0.3-0.3-0.3-0.7,0-1
					l0,0c0.3-0.3,0.7-0.3,1,0c13.7,13.4,25.8,46.4,21.7,76.6C345.8,686,345.5,686.3,345.2,686.3z"/>
				<path class="st2" d="M314,714.8c-1.6,0.9-4.8-1.1-6-1.9c-2.1-1.4-3.8-3.4-5-5.7c-1.3-2.6-1.8-5.6-1.3-8.4c0.2-1.5,0.6-3,1.1-4.5
					l1.3-4.4c0.5-1.4,0.7-2.9,0.6-4.4c-0.4-3-3-5.1-5.4-6.9c-2.6-2-5.4-4.6-5.4-8.2c0.2-2.8,1.3-5.4,3.1-7.5
					c1.7-2.2,3.8-4.1,5.2-6.4c1.2-1.6,1.9-3.5,1.9-5.5c-0.2-1.2-0.6-2.4-1.2-3.5c-1.5-2.2-2.7-4.6-3.8-7c-0.9-2.5-0.7-5.6,1.2-7.4
					c1.8-1.3,4-1.9,6.2-1.5c2,0.3,4,0.9,5.7,2c5.7,3.2,8.9,9.9,15,12.3c2.4,0.7,4.8,1.3,7.3,1.8s4.7,2,6,4.1
					c2.2,4.4-1.9,9.9-0.3,14.6c1.3,4.2,5.4,5.7,7.7,9.5c0.9,1.7,1.3,3.6,1.1,5.4c-0.2,3.2-1,6.3-2.3,9.2c-1.5,2.9-3.2,5.6-5.1,8.3
					C341.5,698.9,314.2,714.6,314,714.8z"/>
				<path class="st4" d="M330.1,706.2L330.1,706.2c-0.4,0-0.7-0.3-0.7-0.7l0,0c1.2-28.1-12.1-59.2-21.7-68.2c-0.3-0.3-0.3-0.7,0-1
					s0.7-0.3,1,0c9.8,9.2,23.3,40.8,22.2,69.3C330.8,705.9,330.5,706.2,330.1,706.2z"/>
				<path class="st4" d="M325.9,673h-0.2c-6.7-1.8-13.5-2.9-20.4-3.3c-0.4,0-0.7-0.3-0.7-0.7l0,0c0-0.4,0.3-0.7,0.7-0.7l0,0
					c7,0.4,14,1.5,20.8,3.4c0.4,0.1,0.6,0.5,0.4,0.9C326.5,672.8,326.2,673,325.9,673L325.9,673z"/>
			</g>
		</g>
	</g>
</g>
<g id="freepik--Device--inject-33">
	<g>
		<g>
			<path class="st7" d="M317.5,704.3L460.7,787c3.6,1.8,7.8,1.8,11.4,0l271.1-156.6c3.1-1.8,3.1-4.7,0-6.6L600,541.1
				c-3.6-1.8-7.8-1.8-11.4,0L317.5,697.8C314.3,699.6,314.3,702.5,317.5,704.3z"/>
			<path class="st8" d="M394.9,742.7c4.9,2.5,10.8,2.5,15.7,0c4.4-2.5,4.4-6.6,0-9.1c-4.9-2.5-10.8-2.5-15.7,0
				C390.5,736.2,390.5,740.3,394.9,742.7z"/>
			<path class="st9" d="M460.7,787l-143.2-82.7c-2.8-1.6-3.1-4.1-0.9-5.9c-2.8,2.2-4.6,5.6-4.8,9.2v5.3c0.2,4,2.3,7.7,5.7,9.8
				l143.2,82.7c1.8,0.9,3.7,1.4,5.7,1.3v-18.4C464.4,788.4,462.4,787.9,460.7,787z"/>
			<path class="st8" d="M743.2,648.9c3.4-2.2,5.5-5.8,5.7-9.8v-5.3c-0.2-3.6-2-6.9-4.8-9.2c2.2,1.8,1.9,4.3-0.9,6L472,787
				c-1.8,0.9-3.7,1.4-5.7,1.3v18.5c2,0.1,3.9-0.4,5.7-1.3L743.2,648.9z"/>
			<path class="st10" d="M484.3,769.9l-135.2-78.1c-1.9-1.1-1.9-2.8,0-3.9l222.3-128.4c2.1-1.1,4.7-1.1,6.8,0l135.2,78
				c1.9,1.1,1.9,2.8,0,3.9L491.1,769.9C488.9,771,486.4,771,484.3,769.9z"/>
			<path class="st11" d="M449.1,664.9L529,711l-50.5,29.1c-1.8,0.9-3.9,0.9-5.7,0l-74.3-42.9c-0.9-0.3-1.4-1.3-1.1-2.2
				c0.2-0.5,0.6-0.9,1.1-1.1L449.1,664.9z"/>
			<path class="st12" d="M529,711l-9.4-37.4c-0.2-0.9-0.7-1.7-1.4-2.3l0,0c-0.7-0.6-1.6-1-2.5-1.1l-66.6-5.4L529,711z"/>
			<path class="st12" d="M529,711l-71.6-3c-1.8-0.1-3.2-1.4-3.4-3.2l-5-40L529,711z"/>
			<path class="st10" d="M529,711l-71.6-3c-1.8-0.1-3.2-1.4-3.4-3.2l-5-40l8.8,39.4c0.2,0.7,0.8,1.3,1.5,1.3L529,711z"/>
			<polygon class="st10" points="465.1,707.9 475.8,741.8 478.6,740.2 			"/>
			<polygon class="st10" points="395.8,695.6 398.6,694 454.4,701.8 			"/>
			<path class="st11" d="M494.6,648l63.6,36.7c1.8,0.9,3.9,0.9,5.7,0l90.3-52.1c0.9-0.3,1.4-1.3,1.1-2.2c-0.2-0.5-0.6-0.9-1.1-1.1
				l-63.6-36.7c-1.8-0.9-3.9-0.9-5.7,0l-90.3,52.1c-0.9,0.3-1.4,1.3-1.1,2.2C493.7,647.5,494.1,647.9,494.6,648z"/>
			<path class="st10" d="M545.2,643.2c-1.5-2.4-1.8-5.4-0.6-8s3.8-5.1,7.7-7.4c4.3-2.5,9.1-4.2,14.1-5c4.8-0.7,9.8-0.5,14.6,0.5
				c4.9,1.1,9.7,2.9,14,5.5c4.2,2.4,7.1,4.9,8.6,7.5c1.5,2.2,1.7,5.1,0.6,7.5c-1.2,2.5-3.6,4.7-7.3,6.9c-3.5,2.1-7.5,3.4-11.6,3.8
				c-3.4,0.3-6.8-0.4-9.9-2c-1.1-0.5-1.9-1.4-2.3-2.5c-0.2-1,0.2-2,1-2.6c-2.1,0.2-4.2,0-6.3-0.4c-2-0.4-4-1.2-5.8-2.2
				c-3-1.7-4.6-3.6-4.7-5.7s1.3-3.9,4.3-5.6c3.7-2.1,7.9-3.2,12.1-3.1c4.3,0.1,8.6,1.3,12.3,3.5c1.5,0.9,2.9,2,4.1,3.3
				c0.9,1,1.5,2.2,1.7,3.6l-11.8,6.8c-1,0.6-1.5,1-1.6,1.5c-0.1,0.4,0.3,0.9,1,1.3c1.6,0.8,3.5,1,5.2,0.4c2.6-0.6,5-1.6,7.3-3
				c3-1.7,4.8-3.5,5.6-5.5c0.8-1.9,0.6-4.1-0.6-5.8c-1.6-2.3-3.7-4.1-6.1-5.4c-5-3-10.7-4.7-16.6-4.9c-5.9-0.2-11.8,1.4-16.9,4.4
				c-3.2,1.9-5.3,3.8-6.2,5.9c-0.9,2-0.8,4.3,0.4,6.1c1.6,2.3,3.7,4.2,6.2,5.6c1.7,1,3.4,1.7,5.2,2.3c1.7,0.6,3.5,1,5.2,1.2
				c0.2,0,0.4,0.1,0.6,0.1c0.1,0,0.1,0.2,0,0.3l-1.7,2.4c-0.1,0.1-0.2,0.2-0.2,0.2c-0.3,0.1-0.5,0.1-0.8,0c-2.2-0.3-4.3-0.8-6.4-1.5
				c-2.2-0.7-4.2-1.6-6.2-2.8C549.5,648.4,546.7,645.9,545.2,643.2z M572.5,644.3c1.8,0.2,3.6-0.1,5.2-1l6.9-3.9
				c-0.8-1.4-2-2.5-3.5-3.2c-2.2-1.3-4.7-2-7.2-2s-5,0.6-7.2,1.9c-1.9,1.1-2.8,2.2-2.8,3.3s1.1,2.2,3.1,3.3
				C568.7,643.6,570.6,644.2,572.5,644.3L572.5,644.3z"/>
			<path class="st8" d="M660.6,589.2c1.1,0.6,2.4,0.6,3.5,0c0.6-0.2,0.8-0.8,0.7-1.4c-0.1-0.3-0.3-0.5-0.7-0.7
				c-1.1-0.5-2.4-0.5-3.5,0c-0.6,0.2-0.8,0.8-0.7,1.4C660,588.9,660.2,589.1,660.6,589.2z"/>
			<path class="st8" d="M666.1,605c2.2,1.1,4.8,1.1,7,0c1.9-1.1,1.9-2.9,0-4c-2.2-1.1-4.8-1.1-7,0
				C664.1,602.1,664.1,603.9,666.1,605z"/>
			<path class="st8" d="M661.2,598.1c1.3-0.7,1.2-2-0.2-2.8L638.1,582c-1.5-0.8-3.3-0.8-4.8-0.1c-1.3,0.7-1.2,2,0.2,2.8l22.9,13.2
				C657.9,598.7,659.7,598.8,661.2,598.1z"/>
		</g>
	</g>
</g>
<g id="freepik--Letter--inject-33">
	<g>
		<g>
			<g id="freepik--letter--inject-33_11_">
				<path class="st2" d="M364.2,431.2c0.1-2.9,1.7-5.5,4.1-7l207.6-119.9c2.6-1.3,5.6-1.3,8.1,0l4.6,2.6c2.4,1.6,3.9,4.2,4.1,7
					v159.2c-0.2,2.9-1.7,5.5-4.1,7L380.9,600c-2.5,1.3-5.6,1.3-8.1,0l-4.6-2.6c-2.4-1.6-3.9-4.2-4.1-7V431.2H364.2z"/>
				<path class="st13" d="M365.3,427.2l11.5,6.6l214.5-123.9c-0.7-1.2-1.7-2.3-2.9-3l-4.6-2.6c-2.5-1.3-5.6-1.3-8.1,0L368.2,424.2
					C367,424.9,366,425.9,365.3,427.2z"/>
				<path class="st3" d="M364.2,431.2v159.1c0.2,2.9,1.7,5.5,4.1,7l4.6,2.6c0.4,0.2,0.7,0.4,1.1,0.5c0.5,0.2,1.1,0.3,1.7,0.4
					c1.1,0.1,2.1,0.1,3.2-0.1c0.3-0.1,0.5-0.1,0.8-0.2c0.2,0,0.3-0.1,0.5-0.2c-0.6,0.3-1.3,0.3-1.9,0c-0.9-0.6-1.3-1.6-1.2-2.6
					V438.5c-0.1-1.5,0.8-2.9,2.1-3.5l-2.1-1.2l-11.5-6.6C364.6,428.4,364.2,429.8,364.2,431.2z"/>
				<path class="st14" d="M376.9,433.8l96.2,35.9c6.8,2.5,14.6,0,18.5-6.1L507,440l85.2-130.5l-82.1,131.4l82.5,32.3
					c-0.1,1.4-0.5,2.8-1.3,4.1l-81.4-36l-18,28.7c-4.1,6.6-12.5,9.2-19.6,6l-12.8-5.6l-81.5,130c-0.9-0.6-1.3-1.6-1.2-2.6v-2.6
					l82.3-124.8L376.9,433.8z"/>
			</g>
			<path class="st7" d="M400.7,396.7l-14.2-8.2l0,0l-0.1-0.1l0,0c-6.3-3.6-14.9-3-24.5,2.5C342.7,402,327,429,327,451.3
				c0,11.1,3.9,18.9,10.2,22.5l0,0l12.9,7.4l3.1-5.2c3.5-0.8,6.9-2.1,10-3.9c19.2-11.1,34.9-38.1,34.9-60.4c0-3-0.4-6-1.1-8.9
				L400.7,396.7z"/>
			<path class="st9" d="M375.3,398.7c-19.3,11.1-34.9,38.1-34.9,60.4c0,22.2,15.6,31.2,34.9,20.1c19.2-11.1,34.9-38.2,34.9-60.4
				C410.1,396.6,394.5,387.5,375.3,398.7z"/>
			<path class="st10" d="M364.5,441.6c-0.3-0.3-0.4-0.6-0.3-1c0.1-0.5,0.2-0.9,0.5-1.3l10.8-16c0.3-0.4,0.5-0.8,0.8-1.1
				c0.2-0.3,0.5-0.6,0.9-0.9l3.9-2.2c0.4-0.3,0.9-0.2,1.2,0.2c0.1,0.2,0.2,0.4,0.2,0.6v36.9c0,0.5-0.2,0.9-0.4,1.3
				c-0.2,0.4-0.5,0.8-0.9,1l-4,2.3c-0.3,0.2-0.6,0.2-0.9,0.1c-0.3-0.2-0.4-0.5-0.4-0.9v-28.2l-7,10.4c-0.2,0.4-0.6,0.7-1,0.9
				c-0.3,0.1-0.7,0.1-0.9-0.1L364.5,441.6z"/>
		</g>
	</g>
</g>
<g id="freepik--Mailbox--inject-33">
	<g>
		<g>
			<g id="freepik--mailbox--inject-33_9_">
				<path class="st8" d="M697.8,619.9v-2.3h0.6c0.9-1.6,2.2-2.9,3.8-3.7c6.7-3.4,14.5-3.4,21.2,0c1.6,0.8,2.9,2.1,3.8,3.7h0.6v2.3
					c0,2.2-1.4,4.5-4.4,6.2c-6.6,3.3-14.5,3.3-21.1,0C699.3,624.4,697.8,622.1,697.8,619.9z"/>
				<path class="st9" d="M723.4,611.5c-6.7-3.4-14.5-3.4-21.2,0c-5.9,3.4-5.9,8.8,0,12.2c6.7,3.4,14.5,3.4,21.2,0
					C729.3,620.3,729.3,614.8,723.4,611.5z"/>
				<path class="st7" d="M716.7,527.6v88.9c-0.1,0.7-0.5,1.3-1.1,1.6c-1.7,0.9-3.7,0.9-5.5,0c-0.6-0.3-1.1-0.9-1.1-1.6v-88.9H716.7
					L716.7,527.6z"/>
				<polygon class="st8" points="709,537.3 709,540.1 716.7,544.5 716.7,541.8 				"/>
				<path class="st9" d="M758.2,504.1L758.2,504.1l-0.7,1.3l-7.1,14.1l-3.3,6.8L735.8,549l-1.2,2.5h-0.2c-0.5,0-0.9-0.1-1.3-0.3
					L682.6,522c-0.8-0.5-1.3-1.3-1.3-2.2v-19.5c0-9.7,6.4-21.3,14.3-25.9c3.8-2.2,7.2-2.3,9.7-0.9l0,0L758.2,504.1z"/>
				<path class="st7" d="M748.6,505.1c-3.2,1.2-14.8,10.8-14.8,25.9c0,12.7,0,19.3,0,20.5h0.5h0.2l1.2-2.5l11.4-22.7l3.3-6.7
					l0.8-1.5L748.6,505.1z"/>
				<path class="st7" d="M762.3,535.5L762.3,535.5c-0.1,0.2-0.3,0.4-0.5,0.5l-0.1,0.1l-26.1,15.2c-0.3,0.2-0.7,0.3-1,0.3h-0.2v-20.5
					c0.1-3.7,0.8-7.4,2.3-10.8l1.3,0.7l9.3,5.3l14.4,8.3l0.7,0.4C762.4,535.1,762.4,535.3,762.3,535.5z"/>
				<path class="st9" d="M758.2,504.1c-2.5-1.3-5.9-1.1-9.5,1c-4.5,2.8-8.1,6.8-10.5,11.6c-0.6,1.1-1.1,2.3-1.6,3.5
					c-1.4,3.4-2.2,7.1-2.3,10.8v20.5h0.2c0.4,0,0.7-0.1,1-0.3l26.1-15.1l0.1-0.1c0.2-0.1,0.4-0.3,0.5-0.5l0,0c0.4-0.5,0.6-1,0.6-1.6
					v-19.4C762.9,509.3,761.1,505.6,758.2,504.1z M761.1,534.8l-24.9,14.4c-0.2,0.1-0.4,0-0.4-0.2v-18c0.1-3.5,0.8-6.9,2.1-10.1
					c0-0.1,0-0.1,0.1-0.2c0.5-1.3,1.1-2.5,1.7-3.7c2.2-4.4,5.6-8,9.7-10.6c1.6-1,3.4-1.6,5.3-1.7c1,0,1.9,0.2,2.8,0.7
					c2.5,1.3,3.9,4.6,3.9,9.1v19.7C761.4,534.4,761.3,534.6,761.1,534.8z"/>
				<path class="st8" d="M761.5,514.5v20.1L737.9,521c0-0.1,0-0.1,0.1-0.2c2.5-6.3,6.8-11.7,11.4-14.3c1.6-1,3.4-1.6,5.3-1.7
					C758.9,504.7,761.5,508.5,761.5,514.5z"/>
				<path class="st12" d="M718.2,524.5l2.1-1.2l0,0c0.9-0.4,2-0.3,2.8,0.3c2.3,1.5,3.8,4.1,3.9,6.8c0.1,1-0.3,1.9-1.1,2.5l0,0
					L724,534l-0.4-0.6c-0.4-0.1-0.8-0.2-1.1-0.4c-2.3-1.5-3.8-4.1-3.9-6.8c0-0.3,0-0.7,0.1-1L718.2,524.5z"/>
				<path class="st10" d="M721.1,524.7c2.3,1.5,3.8,4,3.9,6.8c0,2.5-1.8,3.5-3.9,2.3c-2.3-1.5-3.8-4.1-3.9-6.8
					C717.2,524.5,718.9,523.4,721.1,524.7z"/>
				<path class="st15" d="M721.1,530.3c-0.6,0-1.1-0.5-1.1-1.1v-32.3c0-0.6,0.5-1.1,1.1-1.1s1.1,0.5,1.1,1.1v32.3
					C722.3,529.8,721.8,530.3,721.1,530.3z"/>
				<polygon class="st2" points="720,500.1 708.5,493.5 712.1,500.4 708.5,503.1 720,509.7 				"/>
			</g>
			<g>
				<g>
					<defs>
						<path id="SVGID_1_" d="M761.5,514.5c0-6-2.6-9.7-6.8-9.7c-1.9,0.1-3.7,0.6-5.3,1.7c-4.6,2.6-8.9,8-11.4,14.3
							c0,0.1-0.1,0.1-0.1,0.2l0,0c-1.3,3.2-2,6.6-2.1,10.1v21.5l25.7-14.8L761.5,514.5L761.5,514.5z"/>
					</defs>
					<clipPath id="SVGID_2_">
						<use xlink:href="#SVGID_1_"  style="overflow:visible;"/>
					</clipPath>
					<g class="st16">
						<g id="freepik--letter--inject-33_10_">
							<path class="st17" d="M755.5,521.1c0-0.4-0.2-0.7-0.5-0.9l-25.9-14.9c-0.3-0.2-0.7-0.2-1,0l-0.6,0.3
								c-0.3,0.2-0.5,0.5-0.5,0.9v19.9c0,0.4,0.2,0.7,0.5,0.9l25.9,14.9c0.3,0.2,0.7,0.2,1,0l0.6-0.3c0.3-0.2,0.5-0.5,0.5-0.9V521.1
								z"/>
							<path class="st10" d="M755.4,520.5l-1.4,0.8l-26.8-15.4c0.1-0.2,0.2-0.3,0.4-0.4l0.6-0.3c0.3-0.2,0.7-0.2,1,0l25.9,14.9
								C755.2,520.3,755.3,520.4,755.4,520.5z"/>
							<path class="st12" d="M755.5,521.1v19.8c0,0.4-0.2,0.7-0.5,0.9l-0.6,0.3l-0.1,0.1h-0.2c-0.1,0-0.3,0-0.4,0h-0.1h-0.1
								c0.1,0,0.2,0,0.2,0c0.1-0.1,0.2-0.2,0.2-0.3V522c0-0.2-0.1-0.4-0.3-0.4l0.3-0.2l1.4-0.8C755.5,520.7,755.5,520.9,755.5,521.1
								z"/>
							<path class="st12" d="M753.9,521.4l-12,4.5c-0.9,0.3-1.8,0-2.3-0.8l-1.9-2.9l-10.6-16.3l10.2,16.4l-10.3,4.1
								c0,0.2,0.1,0.3,0.2,0.5l10.2-4.5l2.2,3.6c0.5,0.8,1.6,1.1,2.4,0.7l1.6-0.7l10.2,16.1c0.1-0.1,0.2-0.2,0.2-0.3v-0.3
								l-10.3-15.6L753.9,521.4z"/>
						</g>
					</g>
				</g>
			</g>
			<path class="st9" d="M778.7,517.8l-2.7,2.3c-0.7,1.1-1.5,2.1-2.3,3l-7.9,9.1l-2.8,3.2l-17.9,10.3l-8.6,7.1h-0.1
				c-0.3,0-0.5,0-0.7-0.1l-0.8-0.5l0,0c-0.3-0.1-0.3-0.5-0.2-0.7c0,0,0-0.1,0.1-0.1l0,0l6.2-7.2l0,0l3.9-4.6
				c7.3-8,15.7-14.9,24.9-20.6c3.7-2.1,6-2.9,6.8-2.3l0,0l1.9,1.1C778.6,517.8,778.7,517.8,778.7,517.8z"/>
			<path class="st7" d="M775.5,524.2l-5.2,6l-0.1,0.1l-4.9,5.7c-0.3,0.3-0.6,0.6-1,0.8l-27.6,15.9c-0.1,0.1-0.2,0.1-0.3,0.1l0,0
				l9.9-11.5l0,0l0.6-0.7c7.3-8,15.7-14.9,24.9-20.6c3.6-2.1,5.9-2.8,6.8-2.4l0,0C779.7,518.4,778.7,520.6,775.5,524.2z"/>
		</g>
	</g>
</g>
<path id="Path_537" class="st18" d="M1920,1080h-747.3c141-37.1,276.3-93.2,402.2-166.8c126.9-74.2,243-165.3,345.1-271L1920,1080
	L1920,1080z"/>
</svg>
