<?xml version="1.0" encoding="utf-8"?>
<!-- Generator: Adobe Illustrator 24.0.1, SVG Export Plug-In . SVG Version: 6.00 Build 0)  -->
<svg version="1.1" id="Layer_1" xmlns="http://www.w3.org/2000/svg" xmlns:xlink="http://www.w3.org/1999/xlink" x="0px" y="0px"
	 viewBox="0 0 500 500" style="enable-background:new 0 0 500 500;" xml:space="preserve">
<style type="text/css">
	.st0{fill:#EBEBEB;}
	.st1{fill:#263238;}
	.st2{fill:#FFBE9D;}
	.st3{fill:#EB996E;}
	.st4{fill:#455A64;}
	.st5{fill:#F29A6A;}
	.st6{fill:#FAFAFA;}
	.st7{opacity:0.6;}
	.st8{fill:#FFFFFF;}
	.st9{opacity:0.3;}
</style>
<g id="freepik--background-simple--inject-69">
	<path class="st0" d="M415.7,110.9l-2.1-3.4c-17.9-29.1-50.2-46.6-84.2-44.5c-4.4,0.3-8.7,0.9-13,1.8c-31,6.5-57.9,29.7-69,59.3
		c-6.6,17.4-8.4,37.4-20.9,51.3c-16.2,18-43.7,18.6-67.9,17.8s-51.8-0.1-67.9,17.9c-10.1,11.3-13.3,27.4-12.5,42.5
		c2.2,40.1,30.4,75.9,66.4,93.8s78.3,19.4,117.7,11.6c55.2-11,107.6-41.1,139.1-87.7S441,161.2,415.7,110.9z"/>
</g>
<g id="freepik--Floor--inject-69">
	<path class="st1" d="M464.7,459.4c0,0.1-96.1,0.3-214.6,0.3s-214.7-0.1-214.7-0.3s96.1-0.3,214.7-0.3S464.7,459.2,464.7,459.4z"/>
</g>
<g id="freepik--Character--inject-69">
	<path class="st1" d="M149.2,92.3c4.7,5.8,7.3,13,7.2,20.5c-0.1,4.2-0.8,8.9,1.6,12.3c1.9,2.6,5.3,3.9,6.8,6.7
		c1.8,3.4,0.3,7.7,1.4,11.4c1.6,5.2,7.7,7.4,11.3,11.5c3.1,3.7,4.3,8.6,3,13.3c-1.3,4.6-4.8,8.3-9.4,9.9c-2.4,0.9-5.1,0.9-7.4-0.1
		c-2.4-1.2-4-3.7-5.2-6.2c-2.4-4.8-23.6-30.9-24.8-36.1"/>
	<path class="st1" d="M133.8,86.2c-8.7-1.4-17,4.3-20.6,12.3s-3.8,17-4,25.8s-0.9,17.9-5.4,25.5c-2.8,4.8-7.2,9-7.9,14.5
		c-0.6,4.9,1.9,9.9,1.1,14.8c-0.7,4.3-4,8-3.9,12.3c0.2,5.2,5.5,9.1,10.7,9.3s10.1-2.6,14.2-5.8c6.7-5.3,12-12.1,15.6-19.8"/>
	<path class="st2" d="M119.6,106.8c-1.1-9,5.3-17.2,14.2-18.3c0.2,0,0.3,0,0.5-0.1c8.7-0.8,16.5,5.7,17.8,14.3
		c1.1,7.6,2.1,15.3,2.1,18.1c-0.1,8.4-5,11.7-7,12.7c-0.7,0.3-1.5,0.4-2.2,0.6l0,0 M145,134.2l1.9,9.7c0.9,6.3-2.7,12-9,12.9
		s-11.3-3.9-12.3-10.3L145,134.2z"/>
	<path class="st1" d="M150.4,106.5c-0.1,0.2-1.3-0.4-2.7-0.2s-2.4,1.1-2.6,0.9s0-0.4,0.4-0.8c0.5-0.5,1.2-0.9,2-1
		c0.7-0.1,1.5,0,2.2,0.4C150.3,106.2,150.5,106.4,150.4,106.5z"/>
	<path class="st1" d="M137.7,109.6c-0.1,0.2-1.3-0.4-2.7-0.2s-2.4,1.1-2.5,0.9s0-0.4,0.4-0.8c0.5-0.5,1.2-0.9,2-1
		c0.7-0.1,1.5,0,2.2,0.4C137.6,109.2,137.8,109.5,137.7,109.6z"/>
	<path class="st1" d="M142.9,117.2c0.7-0.3,1.5-0.6,2.3-0.8c0.4-0.1,0.7-0.2,0.7-0.5c0-0.4-0.2-0.7-0.4-1l-1.5-2.7
		c-2.1-3.7-3.6-6.8-3.5-6.9s2,2.9,4,6.6c0.5,0.9,1,1.8,1.4,2.6c0.3,0.4,0.4,0.9,0.4,1.4c-0.1,0.3-0.3,0.5-0.5,0.6
		c-0.2,0.1-0.4,0.1-0.6,0.2C144.5,117.1,143.7,117.2,142.9,117.2z"/>
	<path class="st3" d="M144.9,134.2c0,0-5.4,1.3-12.9-1.9c0,0,3.2,6.9,13.4,4.5L144.9,134.2z"/>
	<path class="st1" d="M137,105.9c-0.1,0.4-1.5,0.4-3.2,0.9s-2.9,1.1-3.2,0.8c-0.1-0.2,0.1-0.6,0.6-1c1.3-1.1,3.1-1.6,4.9-1.3
		C136.7,105.4,137,105.7,137,105.9z"/>
	<path class="st1" d="M149.2,103.4c-0.2,0.4-1.2,0.2-2.4,0.3s-2.1,0.5-2.4,0.2c-0.1-0.2,0-0.5,0.4-0.9c0.5-0.5,1.2-0.8,1.9-0.8
		c0.7-0.1,1.4,0,2,0.4C149.1,102.9,149.3,103.2,149.2,103.4z"/>
	<path class="st1" d="M134.6,111.4c0.1,0.6,0.7,1.1,1.3,1c0,0,0,0,0,0c0.6-0.1,1.1-0.6,1-1.3c0,0,0,0,0,0c-0.1-0.6-0.7-1.1-1.4-1
		C135,110.2,134.6,110.8,134.6,111.4C134.6,111.4,134.6,111.4,134.6,111.4z"/>
	<path class="st1" d="M147.3,108.7c0.1,0.6,0.7,1.1,1.4,1c0.6-0.1,1.1-0.6,1-1.3c0,0,0,0,0,0c-0.1-0.6-0.7-1.1-1.4-1
		C147.6,107.5,147.2,108.1,147.3,108.7C147.2,108.7,147.2,108.7,147.3,108.7z"/>
	<path class="st3" d="M145.2,120c-0.8-0.3-1.7,0.1-2.1,0.9c-0.4,0.7-0.3,1.5,0.3,2.1c0.6,0.6,1.4,0.6,2.1,0.2
		c0.4-0.4,0.6-0.8,0.6-1.4c0.1-0.5,0-1-0.3-1.4c-0.3-0.4-0.8-0.6-1.3-0.4"/>
	<path class="st1" d="M151,96c-0.8-3.2-2.7-5.9-5.5-7.7c-2.2-1.6-4.9-2.6-7.7-2.7c-2.8-0.1-5.5,0.9-7.5,2.7
		c-1.5,1.4-2.3,3.4-2.3,5.5l0.2-1.4c-0.4,1.1-0.4,2.4,0,3.5l0,0c0.2,0.6,0.5,1.2,0.8,1.8c0.7,1.8,2,3.2,3.7,4.1
		c0.8,0.4,1.6,0.6,2.5,0.6c0.9,0,1.7-0.4,2.3-1.1c0.6-1.1,0.8-2.4,0.5-3.6c0.7,1.2,1.6,2.2,2.7,3c1.2,0.8,2.8,0.6,3.8-0.4
		c0.8-1,0.5-2.6,0-3.8c0.8,1.2,1.9,2.1,3.1,2.7c0.7,0.4,1.5,0.5,2.2,0.2c0.6-0.3,1-0.8,1.2-1.5C151.1,97.3,151.1,96.6,151,96z"/>
	<path class="st4" d="M143.8,98.7c-0.1,0-0.1-1.2-0.5-3c-0.4-2.4-1.7-4.6-3.4-6.3c-1-0.9-2.2-1.5-3.5-1.9c-1.1-0.3-2.2-0.3-3.2-0.1
		c-1,0.2-1.9,0.6-2.8,1.2c0,0,0.2-0.3,0.6-0.6c0.6-0.4,1.3-0.8,2.1-0.9c1.1-0.3,2.3-0.3,3.4,0c1.4,0.3,2.7,1,3.7,2
		c1.9,1.7,3.1,4.1,3.5,6.6c0.1,0.7,0.2,1.5,0.2,2.3C143.9,98.2,143.8,98.4,143.8,98.7z"/>
	<path class="st2" d="M235.9,215.3L197.4,200c0,0-19.7-25.8-19.3-26.3l-13.8,15.1l20.1,27.2l46.6,10.9l8-2.2
		C237.2,216.2,235.9,215.3,235.9,215.3z"/>
	<path class="st5" d="M152.1,141.6l-5.2-2l-22.6,2.9v4l-0.7,0.1c-4.9,1-9.6,2.9-13.8,5.4c-8.2,5-12.6,14.6-11,24.1
		c0.9,5.7,2.7,12.7,6.1,16.7c6.6,7.7,12.6-1.8,12.6-1.8s4.1,9.4,3.9,13.9c-0.2,3.7-1.8,11.5-2.4,13.9c-0.1,0.4,0.2,0.8,0.6,0.9
		c0,0,0,0,0,0l47.7,8.8l0.2-11.7l-1.5-48l-2.1-18.6C163.8,150,163.9,141.1,152.1,141.6z"/>
	<polygon class="st5" points="163.1,146.9 181.3,173.2 166.6,191 	"/>
	<path class="st1" d="M167,202.2c-0.1-0.6-0.1-1.1-0.1-1.7c0-1.2,0-2.7-0.1-4.6c-0.1-5.1-0.5-10.1-1.1-15.2
		c-0.8-5.9-1.9-11.2-2.8-15l-1.1-4.5c-0.2-0.5-0.3-1.1-0.3-1.7c0.2,0.5,0.4,1.1,0.5,1.6c0.3,1,0.7,2.6,1.2,4.5
		c1.3,4.9,2.3,9.9,2.9,15c0.6,5.1,1,10.1,0.9,15.2c0,2-0.1,3.5-0.1,4.6C167.1,201.1,167.1,201.7,167,202.2z"/>
	<path class="st6" d="M122.2,162.3c0,0.1-1.4,0.1-3.6,0.2c-2.9,0.2-5.8,0.5-8.6,1.1c-2.8,0.6-5.6,1.4-8.3,2.4
		c-2.1,0.8-3.3,1.3-3.4,1.3c0.3-0.2,0.5-0.4,0.8-0.5c0.6-0.3,1.4-0.7,2.4-1.1c5.4-2.2,11.2-3.4,17-3.5c1.1,0,2,0,2.7,0.1
		C121.6,162.1,121.9,162.2,122.2,162.3z"/>
	<path class="st6" d="M164.4,174.3c-0.7,0.3-1.5,0.4-2.3,0.5c-3.7,0.5-7.4,0.7-11.2,0.4c-0.8,0-1.6-0.1-2.3-0.3
		c0.8-0.1,1.5-0.1,2.3,0c1.4,0,3.4,0,5.6,0s4.1-0.2,5.6-0.4C162.8,174.3,163.6,174.3,164.4,174.3z"/>
	<path class="st6" d="M172.7,162.4c-1.1,1.3-2.4,2.3-3.9,3.1c-1.4,0.9-3,1.6-4.6,2c-0.1-0.1,2-1,4.3-2.5S172.6,162.3,172.7,162.4z"
		/>
	<path class="st6" d="M165.4,150.2c-3.2,2.8-7.2,4.5-11.4,4.8c0-0.2,2.8-0.6,5.9-1.9S165.3,150.1,165.4,150.2z"/>
	<path class="st6" d="M166.3,194.6c-0.3,0.2-0.6,0.4-0.9,0.5c-0.6,0.3-1.5,0.7-2.7,1.1c-3,1.1-6.1,1.9-9.3,2.4
		c-3.2,0.5-6.4,0.7-9.6,0.5c-1.2-0.1-2.2-0.1-2.9-0.2c-0.4,0-0.7-0.1-1.1-0.2c0-0.1,1.5,0,4,0.1c6.4,0.1,12.7-0.9,18.7-2.9
		C164.9,195.1,166.3,194.6,166.3,194.6z"/>
	<path class="st6" d="M166.7,208.2c0,0-0.1,0.1-0.4,0.3L165,209c-1.1,0.5-2.7,1.2-4.8,2s-4.5,1.6-7.3,2.3c-6,1.6-12.2,2.6-18.5,2.9
		c-2.9,0.1-5.5,0.1-7.7,0s-3.9-0.3-5.1-0.4l-1.4-0.2c-0.2,0-0.3,0-0.5-0.1c0.2,0,0.3,0,0.5,0l1.4,0.1c1.2,0.1,3,0.2,5.1,0.3
		s4.8,0,7.6-0.1s6-0.5,9.3-1s6.4-1.2,9.1-1.9s5.2-1.5,7.3-2.2s3.7-1.3,4.8-1.8l1.3-0.5C166.4,208.3,166.5,208.2,166.7,208.2z"/>
	<path class="st5" d="M79,420.8l-5.4,24.4l-9.9,18.1c-0.7,1.2-0.2,2.8,1,3.5c0,0,0.1,0.1,0.1,0.1l0,0c0.8,0.3,1.6,0.3,2.3-0.1
		c4.6-2.6,21.4-12.5,21.7-14.3c0.3-2.1,7.4-25.4,7.4-25.4L79,420.8z"/>
	<g class="st7">
		<path class="st8" d="M64.9,466.9l24.4-16l-0.3,1c-0.2,0.9-0.7,1.7-1.5,2.2c-2,1.4-7.6,5.3-20.3,12.7
			C66.6,467.2,65.7,467.2,64.9,466.9z"/>
	</g>
	<g class="st7">
		<path class="st8" d="M86.3,441.8c-0.7,0.3-1.1,1.1-0.9,1.9c0.3,0.7,1.1,1.1,1.8,0.9c0.8-0.3,1.2-1.2,0.9-2c-0.4-0.7-1.2-1.1-2-0.7
			"/>
	</g>
	<path class="st1" d="M73.1,457.6c-0.4-0.9-1-1.7-1.7-2.4c-0.8-0.6-1.7-1-2.7-1.2c0-0.1,0.3-0.2,0.9-0.1c0.8,0.1,1.5,0.4,2.1,0.9
		c0.6,0.5,1,1.1,1.3,1.9C73.2,457.2,73.1,457.6,73.1,457.6z"/>
	<path class="st1" d="M70.5,460.4c-0.1,0.1-0.7-0.9-1.9-1.6c-0.7-0.3-1.5-0.6-2.3-0.9c0.9-0.3,1.8-0.1,2.6,0.4
		C70.2,459.1,70.7,460.4,70.5,460.4z"/>
	<path class="st1" d="M77.3,454.2c-0.9-0.9-1.8-1.8-2.8-2.6c-1.1-0.7-2.2-1.2-3.4-1.7c1.4,0,2.7,0.4,3.7,1.3
		C76,451.8,76.9,452.9,77.3,454.2z"/>
	<path class="st1" d="M79.6,446.9c-0.1,0.1-1.3-0.8-3-1.3s-3.2-0.4-3.2-0.6C75.6,444.5,78,445.2,79.6,446.9L79.6,446.9z"/>
	<path class="st1" d="M81.3,439.8c-1-0.6-2-1.1-3.1-1.4c-1.1-0.2-2.3-0.2-3.4,0c0-0.1,0.3-0.3,0.9-0.5c1.7-0.5,3.5-0.1,4.9,1
		C81.2,439.4,81.4,439.8,81.3,439.8z"/>
	<path class="st1" d="M78.6,437.1c0-0.3,0.1-0.6,0.2-0.9c0.3-0.8,0.7-1.6,1.3-2.2c0.4-0.5,0.9-0.9,1.5-1.1c0.4-0.1,0.9,0.1,1.1,0.5
		c0.2,0.4,0.2,0.8,0.1,1.2c-0.5,1.7-2.2,2.7-3.9,2.5c-1.7-0.2-3.1-1.5-3.5-3.1c-0.1-0.4,0-0.9,0.2-1.2c0.3-0.3,0.7-0.4,1.2-0.3
		c0.6,0.3,1,0.7,1.4,1.2c0.5,0.7,0.9,1.5,1.2,2.3c0.1,0.3,0.2,0.6,0.2,0.9c-0.4-1.1-1-2.1-1.7-3c-0.3-0.4-0.8-0.8-1.2-1
		c-0.2-0.1-0.5,0-0.6,0.1c-0.1,0.2-0.2,0.5-0.1,0.8c0.4,1.4,1.6,2.4,3,2.6c1.5,0.2,2.8-0.7,3.3-2.1c0.1-0.3,0.1-0.6,0-0.8
		c-0.1-0.2-0.4-0.3-0.6-0.3c-0.5,0.1-1,0.4-1.3,0.9C79.6,435,79,436,78.6,437.1z"/>
	<g class="st9">
		<polygon points="78.3,423.4 77.2,429 94.9,432 96.3,427.1 79,420.8 		"/>
	</g>
	<path class="st5" d="M158,429.8l-1.5,19.5c0,0,19.4,8,19.4,11.7l-38-1.5l1-30.5L158,429.8z"/>
	<g class="st7">
		<path class="st8" d="M144.9,447.2c-0.8,0.2-1.3,0.9-1.1,1.7c0.2,0.8,0.9,1.3,1.7,1.1c0.8-0.2,1.3-1,1.2-1.8
			c-0.3-0.8-1.1-1.2-1.9-1"/>
	</g>
	<g class="st7">
		<path class="st8" d="M138,459.5l0.2-3.1l36.4,2.5c0,0,1.7,0.8,1.4,2L138,459.5z"/>
	</g>
	<path class="st1" d="M157.2,449.2c0,0.2-0.9,0.2-1.9,0.8s-1.4,1.3-1.6,1.2s0.1-1.1,1.3-1.8S157.2,449,157.2,449.2z"/>
	<path class="st1" d="M161.1,451c0,0.2-0.8,0.5-1.4,1.2s-0.9,1.6-1.1,1.6s-0.3-1.1,0.6-2S161.1,450.8,161.1,451z"/>
	<path class="st1" d="M163.2,455.8c-0.2,0-0.4-0.9,0.1-1.9s1.4-1.4,1.5-1.2s-0.5,0.7-0.9,1.5S163.4,455.8,163.2,455.8z"/>
	<path class="st1" d="M157,444.7c-0.1,0.2-0.9-0.1-2-0.1s-1.9,0.3-2,0.2s0.7-0.8,2-0.8S157.1,444.5,157,444.7z"/>
	<g class="st9">
		<polygon points="157.7,433.7 157.5,437.2 138.8,436.3 138.9,432.3 		"/>
	</g>
	<path class="st1" d="M157.3,440.7c-0.6,0.2-1.3,0.1-1.9-0.1c-0.7-0.1-1.4-0.4-2-0.7c-0.4-0.2-0.7-0.4-1.1-0.6
		c-0.2-0.1-0.4-0.3-0.6-0.5c-0.2-0.3-0.2-0.7,0-1c0.2-0.3,0.5-0.4,0.8-0.4c0.2,0,0.5,0.1,0.7,0.1c0.4,0.1,0.8,0.3,1.2,0.5
		c0.6,0.3,1.2,0.7,1.7,1.2c0.9,0.9,1.1,1.6,1.1,1.6s-0.5-0.5-1.4-1.3c-0.5-0.4-1.1-0.7-1.7-1c-0.4-0.1-0.7-0.3-1.1-0.4
		c-0.4-0.1-0.7-0.1-0.9,0s0,0.1,0,0.2c0.1,0.1,0.3,0.2,0.4,0.3c0.3,0.2,0.7,0.4,1,0.6c0.6,0.3,1.2,0.6,1.8,0.8
		C156.1,440.3,156.7,440.5,157.3,440.7z"/>
	<path class="st1" d="M157,441c-0.3-0.6-0.5-1.2-0.4-1.9c0-0.7,0.1-1.4,0.3-2.1c0.1-0.4,0.3-0.8,0.5-1.1c0.2-0.5,0.7-0.9,1.3-0.9
		c0.3,0,0.7,0.2,0.8,0.6c0.1,0.2,0.1,0.5,0.2,0.7c0.1,0.4,0.1,0.9,0,1.3c-0.1,0.7-0.4,1.4-0.9,1.9c-0.8,1-1.6,1.1-1.6,1.1
		s0.6-0.4,1.2-1.4c0.4-0.5,0.6-1.1,0.7-1.8c0.1-0.4,0.1-0.7,0-1.1c-0.1-0.4-0.2-0.7-0.3-0.7s-0.5,0.3-0.7,0.6
		c-0.2,0.3-0.4,0.7-0.5,1c-0.2,0.6-0.4,1.2-0.4,1.9C156.9,440.3,157.1,441,157,441z"/>
	<path class="st1" d="M118.7,219.3c0,0-6,0.3-10,20.8S74.2,426.9,74.2,426.9l22.1,0.2L138,269l-2.8,163l22.5,1.7
		c0,0,16.9-180.3,17-190.8c0.2-13.1-7.3-26.3-7.3-26.3L118.7,219.3z"/>
	<path class="st4" d="M149.1,217.6c0.1,0-2.2,11.8-5.1,26.2c-3,14.4-5.5,26.1-5.6,26.1s2.1-11.8,5.1-26.2S149,217.5,149.1,217.6z"/>
	<path class="st4" d="M152.6,220.5c0-0.1,0.6-0.2,1.3,0.4c0.4,0.4,0.6,0.9,0.6,1.4c-0.1,0.7-0.5,1.3-1.1,1.5
		c-0.6,0.3-1.4,0.2-1.9-0.3c-0.4-0.4-0.6-0.9-0.6-1.4c0-0.9,0.6-1.2,0.6-1.2c-0.2,0.4-0.3,0.8-0.3,1.2c0,0.4,0.2,0.8,0.5,1.1
		c0.7,0.4,1.5,0.3,2-0.4c0.1-0.2,0.2-0.4,0.2-0.6c0-0.4-0.1-0.8-0.4-1.1C153.1,220.5,152.5,220.6,152.6,220.5z"/>
	<path class="st4" d="M151.6,228.6c0-0.1,0.6,0,1,0.8c0.2,0.5,0.2,1-0.1,1.5c-0.5,0.8-1.6,1.1-2.4,0.5c-0.3-0.2-0.5-0.5-0.7-0.8
		c-0.2-0.5-0.1-1,0.2-1.5c0.5-0.8,1.1-0.7,1.1-0.7s-0.5,0.2-0.8,0.8c-0.1,0.4-0.1,0.8,0,1.1c0.3,0.7,1.1,0.9,1.8,0.6
		c0.2-0.1,0.3-0.2,0.4-0.4c0.2-0.3,0.2-0.7,0.1-1.1C152,228.9,151.6,228.7,151.6,228.6z"/>
	<path class="st4" d="M130.4,220.7c0,0.3-0.1,0.7-0.3,1c-0.3,0.9-0.7,1.8-1.2,2.6c-3.1,5.7-8.9,9.6-15.4,10.1c-1,0.1-1.9,0.1-2.9,0
		c-0.3,0-0.7-0.1-1-0.2c0-0.1,1.5,0.1,3.9-0.2c6.3-0.8,11.9-4.4,15.1-9.9C129.9,222.1,130.3,220.6,130.4,220.7z"/>
	<path class="st4" d="M173.4,235.3c0,0-0.3-0.1-0.7-0.4c-0.6-0.4-1.1-0.9-1.6-1.4c-3.3-3.4-5.1-8-4.9-12.7c0-0.7,0.1-1.4,0.3-2.1
		c0.1-0.5,0.2-0.8,0.2-0.7s-0.1,1.1-0.1,2.8c0,4.6,1.7,9,4.8,12.4C172.6,234.5,173.5,235.2,173.4,235.3z"/>
	<path class="st2" d="M251,235.9c0.3-0.8,0.2-0.5-5.1-4c0,0,7.6,5,6.8,2.6c-0.7-0.9-1.5-1.7-2.5-2.3c2,1.2,3.2,1.3,3.5,0.8
		c0.6-0.8-3.8-4-5.8-5.4c1.9,1.4,3.9,2.6,5.9,3.6c1.2,0.4,0.6-1.1-0.2-2.1s-7.3-7.3-9-9.1c-0.6-0.5-0.7-1.5-0.2-2.1
		c0.1-0.1,0.1-0.1,0.2-0.2c3.1-2,4.5-5.2,4.4-6.2c-0.1-0.6-0.7-1-1.3-1c-0.4,0.1-0.7,0.3-0.8,0.6c-0.8,1-1.7,1.8-2.7,2.6
		c-0.8,0.6-1.7,1.1-2.6,1.4c-1.1,0.4-6.5,0.1-7.7-0.5l-3.7,12.5c0,0,13.4,6.3,15.9,7.5C249.4,236.1,250.8,236.5,251,235.9z"/>
	<path class="st3" d="M243.5,230c-0.1,0.1,1.6,1.4,3.9,2.9s4.1,2.5,4.2,2.3s-1.6-1.4-3.9-2.9S243.6,229.8,243.5,230z"/>
	<path class="st3" d="M244.8,227.6c-0.1,0.1,1.7,1.6,4,3.3s4.2,2.9,4.3,2.8s-1.7-1.6-4-3.3S244.9,227.4,244.8,227.6z"/>
	<path class="st3" d="M246.1,225.1c-0.1,0.1,1.6,1.6,3.7,3.2s4,2.8,4.1,2.6s-1.6-1.6-3.7-3.2S246.2,224.9,246.1,225.1z"/>
	<path class="st2" d="M109.9,179.8l9.8,0.5c0.7,2.7,1.6,5.4,2.8,8c7.9-13.7,14-32.1,15.6-39.5c-0.2-0.7-0.5-1.5-0.8-2.5
		c-0.2-1.4-0.2-2.8,0.1-4.2c0.3-1.6,0.7-3.9,0.9-4.9c0.4-3.1,0.9-3.6,2-3.3c1.5,0.5-0.6,8.8,0.6,8.9c0.7,0.1,1.4-2.8,1.7-5.1
		s1.3-9.5,2.1-10c1.1-0.7,2.1,0.4,1.8,2.7s-0.6,9.4,0.6,9.4s2.2-11.8,2.2-11.8s-0.2-2.6,1.2-2.5c2.6,0.1,0.6,12.6,0.4,13.8
		c-0.2,0.8,1.2,1,1.3,0.1s0.7-11.9,3.4-11.8c2,0.1-1.6,10.3-0.4,12.7s1.9-8.1,3.8-7.9c0.7,0.1,1.2,0.2-0.1,6.1
		c-1.3,4.7-2.8,9.3-4.6,13.9c-3,16.4-16.4,68.9-37.3,59.3c-11.7-5.4-17.2-32-17.2-32L109.9,179.8z"/>
	<path class="st3" d="M154.2,152.7c0-0.1,0.1-0.2,0.1-0.4c0.1-0.3,0.2-0.6,0.4-1c0.3-0.9,0.8-2.3,1.4-4s1.3-3.8,2-6.3
		c0.4-1.2,0.7-2.6,0.9-4c0.1-0.7,0.3-1.5,0.4-2.2c0-0.4,0-0.8,0-1.1c0-0.4-0.1-0.7-0.4-0.7s-0.5,0.2-0.8,0.5
		c-0.2,0.4-0.4,0.7-0.5,1.1c-0.3,0.8-0.5,1.6-0.7,2.5s-0.4,1.7-0.7,2.6c-0.1,0.5-0.3,1-0.6,1.4c-0.1,0.1-0.2,0.1-0.3,0.2
		c-0.1,0-0.3,0-0.4-0.1c-0.1-0.1-0.2-0.2-0.3-0.4c-0.1-0.2-0.2-0.5-0.2-0.8c0-2,0.2-4,0.6-6c0.2-1,0.4-2,0.5-3
		c0.1-0.5,0.1-1,0.1-1.5s-0.1-1.1-0.3-1.2s-0.7,0.2-1,0.6c-0.3,0.4-0.5,0.9-0.6,1.4c-0.3,1-0.6,2.1-0.8,3.2
		c-0.2,1.1-0.3,2.2-0.5,3.4c-0.1,0.6-0.1,1.1-0.2,1.7l-0.1,0.9c0,0.4-0.1,0.7-0.4,1c-0.4,0.3-0.8,0.3-1.2,0
		c-0.2-0.1-0.3-0.3-0.4-0.6c0-0.1,0-0.2,0-0.3v-0.2l0.3-1.8c0.2-1.2,0.3-2.4,0.4-3.6s0.2-2.4,0.2-3.6c0.1-1.2-0.1-2.4-0.4-3.6
		c-0.1-0.3-0.2-0.6-0.5-0.7c-0.2-0.1-0.5,0-0.7,0.2c-0.3,0.6-0.5,1.3-0.4,1.9l0,0c-0.2,2.4-0.5,4.7-0.8,6.9
		c-0.2,1.1-0.4,2.3-0.6,3.4c-0.1,0.3-0.2,0.6-0.3,0.8c-0.1,0.3-0.3,0.6-0.6,0.9c-0.3,0.1-0.6,0.1-0.7-0.2c-0.1-0.1-0.2-0.3-0.3-0.4
		c-0.1-0.3-0.2-0.6-0.2-0.9c-0.2-2.2-0.3-4.4-0.1-6.6c0.1-1,0.2-2,0.2-3.1c0-0.4-0.2-0.8-0.6-1.1c-0.2-0.1-0.3-0.1-0.5-0.1
		c-0.1,0-0.2,0.1-0.3,0.1c-0.1,0.1-0.1,0-0.1,0.2c-0.4,0.9-0.6,1.8-0.8,2.8c-0.2,1-0.4,1.9-0.5,2.9s-0.3,1.9-0.4,2.8
		s-0.2,1.8-0.4,2.7c-0.2,0.9-0.4,1.7-0.7,2.6c-0.1,0.2-0.2,0.4-0.3,0.6c-0.1,0.2-0.2,0.4-0.6,0.6c-0.2,0-0.4-0.1-0.5-0.2
		c-0.1-0.1-0.1-0.2-0.2-0.4c0-0.2-0.1-0.4-0.1-0.7c0-1.7,0.2-3.3,0.3-4.8c0.1-0.7,0.1-1.4,0-2.2c0-0.3-0.1-0.7-0.3-0.8
		c-0.3-0.1-0.6-0.1-0.8,0c-0.4,0.5-0.7,1-0.7,1.6c-0.1,0.6-0.2,1.2-0.3,1.8c-0.4,2.4-0.9,4.4-1.1,6.1c-0.1,0.7-0.1,1.5,0,2.2
		c0.1,0.6,0.4,1.1,0.5,1.6s0.2,0.7,0.3,1c0,0.1,0.1,0.2,0.1,0.3c-0.1-0.1-0.1-0.2-0.1-0.3l-0.3-1c-0.1-0.4-0.4-0.9-0.5-1.6
		c-0.1-0.7-0.1-1.5,0-2.3c0.2-1.7,0.6-3.7,1-6.1c0.1-0.6,0.2-1.2,0.3-1.9c0.1-0.3,0.2-0.7,0.3-1c0.1-0.4,0.3-0.7,0.6-0.9
		c0.4-0.2,0.8-0.2,1.2,0c0.4,0.3,0.6,0.7,0.6,1.2c0.1,0.8,0.1,1.5,0,2.3c-0.1,1.5-0.3,3.1-0.3,4.7c0,0.2,0,0.4,0.1,0.6
		c0,0.2,0.1,0.3,0.1,0.2s0.2-0.2,0.3-0.3c0.1-0.2,0.2-0.4,0.3-0.6c0.3-0.8,0.5-1.6,0.6-2.5c0.2-0.9,0.2-1.8,0.4-2.7s0.2-1.9,0.4-2.8
		s0.3-1.9,0.5-2.9c0.2-1,0.4-2,0.8-2.9c0.1-0.2,0.2-0.3,0.4-0.4c0.1-0.1,0.3-0.1,0.4-0.2c0.3-0.1,0.7,0,1,0.2
		c0.5,0.4,0.8,0.9,0.8,1.5c0.1,0.5,0.1,1.1,0,1.6c-0.1,0.5-0.1,1-0.1,1.6c-0.2,2.1-0.2,4.3,0.1,6.4c0,0.3,0.1,0.5,0.2,0.7
		c0,0.1,0.1,0.2,0.1,0.3c0,0,0,0,0.1,0l0,0c0,0.2,0,0,0,0.1s0,0,0-0.1c0.1-0.2,0.2-0.4,0.3-0.6c0.1-0.2,0.2-0.5,0.2-0.8
		c0.3-1.1,0.4-2.2,0.6-3.3c0.3-2.3,0.6-4.6,0.8-6.9v0.1c-0.1-0.8,0.1-1.7,0.5-2.4c0.3-0.4,0.9-0.6,1.4-0.4c0.4,0.2,0.7,0.6,0.9,1.1
		c0.3,1.2,0.5,2.5,0.4,3.8c0,1.2-0.1,2.5-0.2,3.7s-0.3,2.4-0.4,3.6c-0.1,0.6-0.2,1.2-0.3,1.8c-0.1,0.4-0.1,0.4,0,0.5
		c0.1,0.1,0.3,0.1,0.5,0c0.1-0.1,0.1-0.3,0.2-0.6l0.1-0.9l0.2-1.7c0.1-1.1,0.3-2.3,0.5-3.4c0.2-1.1,0.5-2.2,0.8-3.3
		c0.2-0.5,0.4-1.1,0.7-1.6c0.2-0.3,0.4-0.5,0.6-0.7c0.3-0.2,0.7-0.3,1-0.2c0.3,0.2,0.5,0.5,0.6,0.9c0,0.3,0.1,0.6,0.1,0.9
		c0,0.6-0.1,1.1-0.1,1.6c-0.1,1-0.3,2.1-0.5,3.1c-0.4,1.9-0.6,3.8-0.6,5.8c0,0.2,0.1,0.4,0.2,0.6c0,0.1,0.1,0.1,0.1,0.2l0,0l0,0
		c0,0,0,0,0-0.1c0.2-0.4,0.4-0.8,0.5-1.2c0.3-0.9,0.5-1.8,0.7-2.6c0.2-0.9,0.5-1.7,0.8-2.5c0.1-0.4,0.3-0.8,0.5-1.2
		c0.1-0.2,0.3-0.4,0.5-0.5c0.1-0.1,0.2-0.1,0.4-0.2c0.1,0,0.3,0,0.4,0c0.3,0,0.5,0.2,0.6,0.5c0.1,0.2,0.1,0.4,0.1,0.7
		c0,0.4,0,0.8-0.1,1.2c-0.1,0.8-0.2,1.5-0.4,2.3c-0.3,1.4-0.6,2.8-1,4c-0.8,2.5-1.5,4.6-2.1,6.3s-1.1,3-1.5,3.9
		c-0.2,0.4-0.3,0.8-0.4,1C154.4,152.4,154.3,152.6,154.2,152.7z"/>
	<path class="st5" d="M99.7,180.9c1.9,6.7,5.6,17.1,9.6,28c0.4,1,1.4,1.5,2.4,1.1c0.5-0.2,0.9-0.5,1.1-1l9.8-20.7
		c0,0-2.4-17-2.2-16.4s-20.2,2.2-20.2,2.2L99.7,180.9z"/>
	<path class="st6" d="M121.7,177.6c0,0.1-1.2,0.4-3.2,1.2c-2.5,1-5,2.1-7.3,3.5c-2.3,1.4-4.5,3-6.5,4.8c-1.6,1.4-2.4,2.3-2.5,2.3
		s0.2-0.3,0.6-0.7c0.5-0.6,1.1-1.2,1.7-1.8c2-1.9,4.1-3.6,6.5-5c2.3-1.4,4.8-2.6,7.4-3.4c0.8-0.3,1.6-0.5,2.4-0.7
		C121.1,177.6,121.4,177.6,121.7,177.6z"/>
	<path class="st1" d="M125.6,182.7c-0.6-0.6-1.2-1.4-1.6-2.1c-1.2-1.8-2.2-3.7-3-5.7c-0.8-2-1.5-4.1-1.9-6.2
		c-0.2-0.9-0.4-1.8-0.3-2.7c0.3,0.8,0.5,1.7,0.7,2.6c0.5,2.1,1.2,4.1,2,6.1c0.8,2,1.8,3.9,2.9,5.8
		C124.7,181.1,125.2,181.9,125.6,182.7z"/>
	<path class="st1" d="M132.1,91.1c-3.4,5.7-4.1,12.6-1.9,18.8c1,2.8,2.6,5.5,2.3,8.4s-2.6,5.8-1.8,8.7c0.5,1.7,1.9,3,2.5,4.7
		c0.6,2,0,4.1-0.4,6.2c-0.8,5.2,0.9,10.5,1.3,15.8s-1,11.5-5.7,13.8c-1.4,0.7-3.3,0.9-4.5-0.2c-1.5-1.4-1.1-3.8-0.7-5.8
		c4.1-20-8.7-39.5-5.7-59.8c0.5-3.2,2.3-8.7,4.6-11s8.8-2,11,0.4"/>
	<path class="st4" d="M112.4,149.1c0,0,0.6-0.7,1.5-2.1c1.3-2,2.1-4.2,2.6-6.6c0.3-1.6,0.4-3.2,0.3-4.9c-0.2-1.9-0.2-3.8-0.2-5.7
		c0.1-1,0.3-2.1,0.6-3.1c0.4-1,0.8-2,1.4-2.9c1.1-1.9,2.5-3.7,3.8-5.5c1.3-1.8,2.3-3.8,2.7-6c0.2-2,0.1-4.1-0.3-6.1
		c-0.4-1.9-0.5-3.8-0.4-5.7c0.1-1.7,0.5-3.3,1-4.9c0.8-2.3,2-4.4,3.5-6.2c0.4-0.5,0.9-1,1.4-1.4c0.2-0.2,0.3-0.3,0.5-0.4
		c0,0-0.7,0.7-1.7,2c-2.5,3.1-4,7-4.2,11c-0.1,1.9,0.1,3.7,0.5,5.6c0.5,2.1,0.6,4.2,0.4,6.3c-0.5,2.2-1.4,4.3-2.8,6.2
		c-1.3,1.9-2.7,3.7-3.8,5.5c-0.5,0.9-1,1.9-1.3,2.8c-0.3,1-0.5,1.9-0.6,2.9c0,1.9,0,3.8,0.2,5.6c0.1,1.7,0,3.3-0.4,4.9
		c-0.5,2.4-1.5,4.6-2.8,6.6c-0.4,0.5-0.8,1.1-1.2,1.5C112.8,148.8,112.6,149,112.4,149.1z"/>
	<path class="st4" d="M102.9,150.6c0.1-0.2,0.2-0.5,0.3-0.7c0.3-0.5,0.6-1.1,1-1.9c0.8-1.6,2.1-4,3.3-7c1.5-3.5,2.3-7.3,2.5-11.1
		c0-1.1-0.1-2.2-0.3-3.3c-0.2-1.1-0.4-2.3-0.6-3.4c-0.2-1.2-0.2-2.5,0.1-3.7c0.3-1.2,1-2.4,2-3.2c1.9-1.7,4.2-2.8,5.3-4.8
		c1-2,1.6-4.2,1.8-6.4c0.2-2,0.7-4.1,1.4-6c1.6-4.2,4.4-7.7,8.1-10.2c0.6-0.4,1.2-0.8,1.8-1.1c0.2-0.1,0.4-0.2,0.7-0.3
		c0,0-0.9,0.5-2.4,1.5c-2.1,1.5-3.9,3.4-5.4,5.5c-1,1.5-1.8,3-2.4,4.7c-0.7,1.9-1.1,4-1.3,6c-0.3,2.1-0.5,4.5-1.8,6.6
		s-3.6,3.3-5.4,5c-0.9,0.8-1.6,1.8-1.9,3c-0.2,1.1-0.3,2.3-0.1,3.5c0.2,1.2,0.4,2.3,0.6,3.4c0.2,1.1,0.3,2.2,0.2,3.4
		c-0.1,3.9-1,7.7-2.6,11.3c-1,2.4-2.2,4.7-3.5,7l-1.1,1.6C103.2,150.2,103.1,150.4,102.9,150.6z"/>
</g>
<g id="freepik--speech-bubble--inject-69">
	<path class="st1" d="M97.4,119.5l-17.6-4.3H80c-4.5,2.9-9.8,4.5-15.2,4.6c-3.2,0-6.3-0.4-9.4-1.4c-10.9-3.5-18.8-13-20.2-24.4
		c-1.1-8.5,1.7-17.1,7.5-23.4c1.5-1.7,3.2-3.2,5.1-4.5c0.9-0.6,1.9-1.2,2.9-1.7l1.5-0.7l0.7-0.4l0.8-0.3c4-1.6,8.3-2.2,12.6-1.9
		c11.8,0.8,21.9,8.5,25.8,19.7c1,3.1,1.6,6.3,1.6,9.5c0,5.4-1.4,10.6-4.2,15.2v-0.2C94.4,114,96.9,118.5,97.4,119.5
		c-0.6-1-3.1-5.4-8.2-14.1v-0.1v-0.1c2.7-4.5,4.1-9.7,4-15c0-3.2-0.6-6.3-1.6-9.3C87.8,70,77.9,62.4,66.3,61.6
		c-4.2-0.3-8.4,0.4-12.4,1.9l-0.8,0.3l-0.7,0.4L51,64.8c-1,0.5-1.9,1.1-2.8,1.7c-1.8,1.3-3.5,2.7-5,4.3c-5.8,6.2-8.5,14.6-7.4,23
		c0.9,7.6,4.8,14.5,10.8,19.2c2.7,2.1,5.7,3.8,9,4.8c3,0.9,6.1,1.4,9.2,1.4c5.3-0.1,10.5-1.6,15-4.4h0.1H80L97.4,119.5z"/>
	<path class="st5" d="M62,77.3L62.9,92c0.1,1.2,1,2.2,2.2,2.2l0,0c1.3,0.1,2.4-0.9,2.5-2.1l1.6-14.7c0.1-1-0.6-1.9-1.7-2.1
		c-0.1,0-0.2,0-0.2,0h-3.6C62.8,75.3,62,76.2,62,77.3C62,77.2,62,77.3,62,77.3z"/>
	<path class="st5" d="M69,102.4c-0.6,1.9-2.7,2.9-4.5,2.3c-1.9-0.6-2.9-2.7-2.3-4.5c0.6-1.9,2.6-2.9,4.5-2.3
		C68.6,98.5,69.6,100.6,69,102.4C69,102.4,69,102.4,69,102.4z"/>
</g>
</svg>
