<?xml version="1.0" encoding="utf-8"?>
<!-- Generator: Adobe Illustrator 24.0.1, SVG Export Plug-In . SVG Version: 6.00 Build 0)  -->
<svg version="1.1" id="Layer_1" xmlns="http://www.w3.org/2000/svg" xmlns:xlink="http://www.w3.org/1999/xlink" x="0px" y="0px"
	 viewBox="0 0 1920 1080" style="enable-background:new 0 0 1920 1080;" xml:space="preserve">
<style type="text/css">
	.st0{fill:#FEEEE5;}
	.st1{fill:#414142;}
	.st2{fill:#F5F6F6;}
	.st3{opacity:0.3;fill:#F5B18D;stroke:#4E4E4E;stroke-miterlimit:10;enable-background:new    ;}
	.st4{fill:#F5B18D;stroke:#4E4E4E;stroke-miterlimit:10;}
	.st5{fill:#F39A6A;}
	.st6{opacity:0.2;fill:#010101;enable-background:new    ;}
	.st7{fill:#273339;}
	.st8{fill:#010101;}
	.st9{fill:#803F3C;}
	.st10{fill:#FFFFFF;}
	.st11{fill:#631112;}
	.st12{fill:#E0E1E0;}
	.st13{fill:#FAC2BE;}
	.st14{fill:#EC847E;}
	.st15{fill:#CE7A63;}
	.st16{opacity:0.1;fill:#FFFFFF;enable-background:new    ;}
	.st17{fill:#BB4E3D;}
</style>
<rect y="-0.6" class="st0" width="1920" height="1081.1"/>
<path id="Path_8" class="st1" d="M1920,1080h-747.3c141-37.1,276.3-93.2,402.2-166.8c126.9-74.2,243-165.3,345.1-271V1080z"/>
<g id="freepik--Shadow--inject-228">
	
		<image style="overflow:visible;opacity:0.5;" width="2631" height="272" xlink:href="228CDDC.png"  transform="matrix(0.24 0 0 0.24 236.1805 833.0468)">
	</image>
	<g>
		<g>
			<ellipse id="freepik--path--inject-228_12_" class="st2" cx="545.9" cy="859.7" rx="300.6" ry="17.5"/>
		</g>
	</g>
</g>
<g id="freepik--Bulb--inject-228">
	
		<image style="overflow:visible;opacity:0.5;" width="1536" height="1786" xlink:href="228CDD3.png"  transform="matrix(0.24 0 0 0.24 366.2605 289.2068)">
	</image>
	<g>
		<g>
			<path class="st3" d="M711.6,436.2c-1.2-6.5-2.7-13-4.7-19.4l1.6-0.4c1.9,6.4,3.5,12.9,4.7,19.5L711.6,436.2z"/>
			<path class="st3" d="M702.1,402.7c-5-12.5-11.5-24.3-19.2-35.3l1.3-0.9c7.8,11.1,14.3,23,19.3,35.6L702.1,402.7z"/>
			<path class="st3" d="M707.6,495.6c16.4-90.8-44-177.8-134.8-194.2c-0.8-0.1-1.6-0.3-2.4-0.4c-89-14.8-174.5,44.7-191.5,133.3
				c-11.4,59.1,9.8,119.8,55.6,158.8c12.7,11,18.6,27.9,15.5,44.4l-2,11c-3.1,17.2,8.3,33.7,25.6,36.8l57.8,10.4
				c17.2,3.1,33.7-8.3,36.8-25.6l2-11c3-16.6,14.5-30.4,30.3-36.3C656.3,602.5,697,554,707.6,495.6z"/>
			<ellipse class="st4" cx="487.2" cy="378.2" rx="43.8" ry="43.7"/>
			
				<ellipse transform="matrix(1.099224e-03 -1 1 1.099224e-03 201.2906 916.4374)" class="st4" cx="559.4" cy="357.5" rx="16.1" ry="16.1"/>
		</g>
	</g>
</g>
<g id="freepik--character-1--inject-228">
	
		<image style="overflow:visible;opacity:0.5;" width="1025" height="2121" xlink:href="228CDD4.png"  transform="matrix(0.24 0 0 0.24 272.1805 372.4868)">
	</image>
	<g>
		<g>
			<path class="st5" d="M390.3,453.7c-0.7,3.3-1.5,7-2.2,10.5c-0.7,3.5-1.3,7.1-1.8,10.6c-0.5,3.5-0.9,6.9-1.1,10.1
				c-0.1,1.6,0,3.1,0,4.4s0.3,2.3,0.2,2.4l-0.7-1.3c-0.3-0.3-0.9-0.6-1-0.5c-0.1,0.1,0.3,0.4,1,0.6c2,0.4,4.1,0.5,6.2,0.3
				c2.6-0.2,5.2-0.6,7.8-1.1c2.6-0.5,5.5-1.1,8-1.7l0.5-0.1c3-0.7,6,1.2,6.7,4.3c0.5,2.1-0.3,4.3-2.1,5.7c-2.6,2-5.3,3.7-8.1,5.3
				c-2.9,1.6-5.9,2.9-9,4c-3.6,1.3-7.4,2-11.3,2c-2.6,0-5.1-0.5-7.5-1.4c-3.1-1.2-5.8-3.3-7.8-6c-0.2-0.3-0.4-0.6-0.5-0.9l-0.2-0.3
				c-1.4-2.7-2.3-5.6-2.8-8.6c-0.4-2.3-0.6-4.7-0.7-7.1c-0.1-4.3,0-8.5,0.4-12.8c0.4-4.1,1-8.1,1.7-12.1c0.7-4,1.6-7.8,2.6-11.9
				c1.8-5.9,8-9.2,13.9-7.4c5.4,1.6,8.7,7.1,7.8,12.6L390.3,453.7z"/>
			<path class="st6" d="M390.3,453.7c-0.7,3.3-1.5,7-2.2,10.5c-0.7,3.5-1.3,7.1-1.8,10.6c-0.5,3.5-0.9,6.9-1.1,10.1
				c-0.1,1.6,0,3.1,0,4.4s0.3,2.3,0.2,2.4l-0.7-1.3c-0.3-0.3-0.9-0.6-1-0.5c-0.1,0.1,0.3,0.4,1,0.6c2,0.4,4.1,0.5,6.2,0.3
				c2.6-0.2,5.2-0.6,7.8-1.1c2.6-0.5,5.5-1.1,8-1.7l0.5-0.1c3-0.7,6,1.2,6.7,4.3c0.5,2.1-0.3,4.3-2.1,5.7c-2.6,2-5.3,3.7-8.1,5.3
				c-2.9,1.6-5.9,2.9-9,4c-3.6,1.3-7.4,2-11.3,2c-2.6,0-5.1-0.5-7.5-1.4c-3.1-1.2-5.8-3.3-7.8-6c-0.2-0.3-0.4-0.6-0.5-0.9l-0.2-0.3
				c-1.4-2.7-2.3-5.6-2.8-8.6c-0.4-2.3-0.6-4.7-0.7-7.1c-0.1-4.3,0-8.5,0.4-12.8c0.4-4.1,1-8.1,1.7-12.1c0.7-4,1.6-7.8,2.6-11.9
				c1.8-5.9,8-9.2,13.9-7.4c5.4,1.6,8.7,7.1,7.8,12.6L390.3,453.7z"/>
			<path class="st5" d="M355.6,727.6c0,0-7.1-8.6-6.8-11.5l-8.2-4.7l-5.4,8.4l6.7,3.8l1.3-0.3l0.8,1.6c3.4,2.2,7.2,3.8,11.1,4.9
				C355.7,729.2,355.8,728.4,355.6,727.6z"/>
			<path class="st7" d="M364,619.1c6.1-43.7,4.1-70.3,10.5-91.9l39.7-3.2c0,0-17.6,69.3-25.7,98.2s-39,95-39,95l-10.9-6.2
				C338.6,711,353.2,652.9,364,619.1z"/>
			<path class="st8" d="M396.4,556.3c-2.7,6.2-8,46.4-8,66.4c0-0.2,0-0.3,0.1-0.5c2.8-10.2,6.9-25.3,10.9-40.7L396.4,556.3z"/>
			<path class="st5" d="M427.8,726.9c0,0-16.7-2.4-17.9-5.1h-10.4l0.5,10h5.8l0.9-0.9l1.4,0.9c4.7,0,18.1-1.3,20.8-3.1
				C428.8,728,428.4,727.3,427.8,726.9z"/>
			<path class="st7" d="M399.2,620.2c-8.7-59.3-8.7-96-8.7-96l38.9-0.6c0,0-4.7,70.7-6.3,100.3c-1.7,30.8-11.3,98.5-11.3,98.5h-13.5
				C398.2,722.5,395.1,658.3,399.2,620.2z"/>
			<path class="st9" d="M393.7,412.7c-1.8,7.8-3.1,17.9-5.4,23.6c3.9,3.6,10.3,8.2,18.8,8c8.5-0.1,6.9-5.8,4.7-8.8
				c-6.1-3.1-6.3-6.2-4.8-8.9L393.7,412.7z"/>
			<path class="st10" d="M380.4,438.3c2.3-2,4.7-3.9,7.3-5.6c2.1-1.1,18.6-0.7,22.4,0c3.8,0.7,8.5,6.4,8.5,6.4L380.4,438.3z"/>
			<path class="st7" d="M420.5,411.7c-0.2,0.8,0.1,1.6,0.6,1.6s1.1-0.4,1.2-1.2c0.2-0.8-0.1-1.5-0.6-1.6S420.7,411,420.5,411.7z"/>
			<path class="st11" d="M420.2,412.8c0.4,2.5,1.1,5,2.2,7.3c-1.2,0.5-2.6,0.5-3.8-0.1L420.2,412.8z"/>
			<path class="st7" d="M423.2,407.3c-0.1,0.1-0.3,0.1-0.4,0c-1.1-0.5-2.3-0.5-3.3,0.1c-0.2,0.1-0.5,0.1-0.6-0.2
				c-0.1-0.2-0.1-0.5,0.1-0.6c1.3-0.8,2.8-0.8,4.2-0.2c0.2,0.1,0.3,0.4,0.2,0.6C423.3,407.2,423.2,407.3,423.2,407.3z"/>
			<path class="st9" d="M395.1,404c-1.6,9.5-2.9,15,0.8,20.9c5.5,8.8,18.1,7,22.5-1.9c3.9-8,5.8-22.2-2.6-28
				c-6.1-4.1-14.3-2.6-18.5,3.5C396.1,400.1,395.4,402,395.1,404z"/>
			<path class="st7" d="M410.7,417.8c-10.2,6.3-16.4,4.8-18.9,1.1c-4.2-6.1,0-9.5,0-9.5c-4.9,0.2-6.3-8.4-2.9-11.3
				c-3.1-3.1-1-10.3,4.2-9.2c-0.4-5.3,7.9-10.6,15.9-5c6.6-3.4,15.7-0.9,17.9,5.2c2.2,6-1.1,8.6-1.1,8.6c2,2.2-1.6,8.7-7.8,8.4
				c-1.1,3.4-1.6,6-5.6,6.2C411.5,416.7,412.5,416.3,410.7,417.8z"/>
			<path class="st9" d="M408.2,411.7c-0.6,2-0.4,4.1,0.6,5.9c1.3,2.3,3.7,1.2,4.9-1.2c1.1-2.2,1.7-6-0.3-7.4
				S408.9,409.2,408.2,411.7z"/>
			<path class="st5" d="M381,437.2c14.7-1.7,29.5-1.4,44.1,0.7c6.3,1.1,11,6.4,11.5,12.7c1.6,18.9-2.6,51.8-6.2,85
				c-29.1,9.8-58.6-0.1-58.6-0.1c-0.7-6.7,3-28.6,5.2-40.3c-1.6-12.1-5.8-25.9-8.2-42c-1.1-7.7,4.2-14.8,11.9-16
				C380.8,437.2,380.9,437.2,381,437.2z"/>
			<path class="st6" d="M420.5,463.6c2,11.4,8.3,24.9,14,33.9c0.8-7.8,1.5-15.3,1.9-22.2L420.5,463.6z"/>
			<path class="st9" d="M494.5,475.4l-2.9-1.1c-1.1-0.4-2.3-0.3-3.3,0.4l-4.5,3c-1.8,1.2-2.9,3.2-3,5.4v1.3
				c4.7,2.2,11.3,1.1,11.3,1.1l1.9-0.1c1.7,0,3-1.4,2.9-3.1c0,0,0,0,0,0l-0.1-3.8C496.7,477.1,495.8,475.9,494.5,475.4z"/>
			<path class="st5" d="M434.9,445.9c1.6,3.1,3.1,6.5,4.7,9.7c1.6,3.2,3.3,6.4,5,9.5c1.7,3.1,3.5,6,5.3,8.7c0.9,1.3,1.8,2.5,2.7,3.5
				c0.8,1,1.6,1.7,1.7,1.8l-1.3-0.5c1.4,0.6,3,1,4.5,0.9c2.4,0,4.7-0.1,7.1-0.4c2.5-0.3,5.1-0.8,7.8-1.3c2.6-0.5,5.4-1.2,8-1.7
				l0.4-0.1c3-0.7,6,1.2,6.7,4.3c0.5,2.1-0.3,4.3-2.1,5.7c-2.5,1.9-5,3.7-7.8,5.2c-2.7,1.6-5.6,3-8.5,4.1c-3.2,1.3-6.5,2.2-10,2.8
				c-4.2,0.8-8.4,0.7-12.5-0.4c-0.3-0.1-0.6-0.2-0.9-0.3l-0.5-0.2c-2.7-1.3-5.2-3.1-7.4-5.1c-1.7-1.6-3.4-3.3-4.9-5.2
				c-2.7-3.3-5.2-6.7-7.4-10.4c-2.2-3.5-4.2-7-6-10.6c-1.9-3.5-3.5-7.1-5.2-11c-2.5-5.6,0-12.2,5.6-14.8c5.6-2.5,12.2,0,14.8,5.6
				L434.9,445.9z"/>
			<rect x="312.3" y="731.8" class="st7" width="133.1" height="10.9"/>
			<rect x="296.8" y="790.7" class="st7" width="133.1" height="10.9"/>
			<rect x="281.3" y="849.5" class="st7" width="133.1" height="10.9"/>
			<rect x="442.4" y="731.8" class="st7" width="3" height="128.6"/>
			<polygon class="st7" points="407.1,860.4 410.1,860.4 439.4,731.8 436.4,731.8 			"/>
			<rect x="328.5" y="731.8" class="st7" width="3" height="128.6"/>
			<polygon class="st7" points="293.2,860.4 296.2,860.4 325.5,731.8 322.5,731.8 			"/>
		</g>
	</g>
</g>
<g id="freepik--character-2--inject-228">
	
		<image style="overflow:visible;opacity:0.5;" width="676" height="758" xlink:href="228CDD1.png"  transform="matrix(0.24 0 0 0.24 424.9919 721.6792)">
	</image>
	<g>
		<g>
			<path class="st12" d="M536.3,735c-13.6-1.6-19.3,10.5-9.5,16.4c9.8,5.9-17.1,24-4.2,33.6c12.8,9.6,28.4,30,37.3,10.7
				c8.9-19.3-15.2-29.5-4.4-38.8S551.8,720.3,536.3,735z"/>
			<path class="st12" d="M559.9,796.1c-0.1,0-0.3-0.1-0.3-0.2c-0.1-0.2,0-0.4,0.1-0.5c3-1.8,4.8-3.8,5.3-6.2c1.1-4.7-2.4-9.9-5.8-15
				c-4.1-6.2-8.4-12.7-3.5-17.4c3-2.9,3.9-7.4,2.6-12.5c-1.6-6-5.9-10.9-10.7-12.1c-4-1-8,0.5-11.6,4.4c-0.2,0.1-0.4,0.1-0.5,0
				c-0.2-0.1-0.2-0.4,0-0.5c0,0,0,0,0,0c4.9-5.1,9.4-5.3,12.4-4.6c5.1,1.3,9.6,6.4,11.3,12.7c1.4,5.3,0.4,10.2-2.8,13.3
				c-4.4,4.2-0.5,10.2,3.6,16.4c3.5,5.3,7.1,10.7,5.9,15.6c-0.6,2.6-2.5,4.8-5.7,6.7C560.1,796,560,796.1,559.9,796.1z"/>
			<path class="st7" d="M506.6,838.8l28.2,5.2c2.6,14.8-3.9,33.7-29.2,33.7c-30.9,0-60.3-5.9-55.9-20.2
				C455,840.5,506.6,838.8,506.6,838.8z"/>
			<path class="st6" d="M506.6,838.8l28.2,5.2c2.6,14.8-3.9,33.7-29.2,33.7c-30.9,0-60.3-5.9-55.9-20.2
				C455,840.5,506.6,838.8,506.6,838.8z"/>
			<path class="st7" d="M535.6,864.2c5.8,4.9,16,14.3,14.6,15.4c-6.8,5.4-14.1-6.5-21.5-4.7C529.8,869.6,535.6,864.2,535.6,864.2z"
				/>
			<path class="st7" d="M548.4,843.9c2.6,14.8-3.9,38.6-29.2,38.6c-41.6,0-65.9,0.7-69.3-13.8c-3.4-14.5,56.2-16.1,56.2-16.1
				c-3.2-5-4.1-11.2-2.4-16.9C531.1,836.3,548.4,843.9,548.4,843.9z"/>
			<path class="st13" d="M520.1,791.5c-1.7,3.1-3.4,5.7-5.2,8.5c-1.9,2.7-3.9,5.3-6,7.9c-2.2,2.6-4.6,5-7.1,7.3
				c-1.3,1.2-2.8,2.3-4.2,3.3c-0.7,0.5-1.6,1-2.4,1.6l-1.3,0.7c-0.7,0.4-1.4,0.7-2.1,0.9c-2.6,0.8-5.4,0.8-8,0
				c-2-0.6-3.8-1.4-5.6-2.4c-3-1.8-5.8-3.9-8.3-6.3c-4.8-4.5-9-9.4-12.7-14.8c-1.1-1.6-0.7-3.7,0.9-4.8c1.3-0.9,3.1-0.8,4.3,0.3
				l0.1,0.1c4.4,4,9.1,7.7,14,11.2c2.2,1.6,4.6,3,7.1,4.1c1,0.5,2,0.8,3.1,0.9c0.9,0.1,1.3,0,1.1-0.1c-0.1-0.1-0.1,0,0,0l0.7-0.5
				c0.5-0.4,1-0.7,1.5-1.1c1-0.8,1.9-1.7,2.9-2.7c2-2,3.8-4.1,5.5-6.3c1.8-2.3,3.5-4.7,5.1-7.1s3.3-5,4.7-7.3l0.1-0.2
				c2-3.3,6.3-4.3,9.6-2.3C520.9,784.3,521.9,788.3,520.1,791.5L520.1,791.5z"/>
			<path class="st5" d="M514.5,780.2c-9.2,1.8-16.6,17.5-16.6,17.5l14.3,16.2c0,0,7.6-10.7,9.1-15.7
				C522.7,793.2,519.7,779.2,514.5,780.2z"/>
			<path class="st13" d="M449.2,793.6l1.1-4.5c0.3-1.1,1.3-1.7,2.4-1.5c0,0,0,0,0,0l3.2,0.8c1.3,0.3,2.4,1,3.2,2l5.2,6l-2.6,4.2
				c-2.4-0.4-4.7-1.2-6.7-2.4l-4.9-2.5C449.4,795.4,449,794.5,449.2,793.6z"/>
			<path class="st5" d="M514.5,780.2c11.5-2.4,20.4-3.7,32.7,1.6c6.6,2.9,10.5,9.9,9.2,17.1c-2.7,16.2-7.6,30.5-8,45.2
				c-28.6,11.8-45.2,1.3-44.7-8.1c6.7-17.7,1.9-37.8,4.3-47.6C509.2,783.2,510.7,781,514.5,780.2z"/>
			<path class="st13" d="M537.8,759.6c-1.1,5.5-2.4,16.9,1.4,20.5c-5.7,4.3-11.2,9-16.2,14.1C516.9,785,522,780,522,780
				c6.2-1.6,6.3-7.1,5.2-11.4L537.8,759.6z"/>
			<path class="st6" d="M533.5,763.2l-6.2,5.3c0.3,1,0.4,2.1,0.5,3.1c2.4-0.3,6.1-2.4,6.6-4.9C534.5,765.5,534.1,764.3,533.5,763.2z
				"/>
			<path class="st13" d="M550.4,757c-5,7.8-7,11.2-13.4,13.1c-9.6,2.8-18.1-5.1-15.5-14.2c2.4-8.2,10.2-19.6,19.9-18.4
				c6.9,0.9,11.9,7.2,11,14.1C552.1,753.5,551.5,755.4,550.4,757z"/>
			<path class="st6" d="M537.4,752.1c0.8,0,1.6,0.5,2.2,1.1C538.7,753,538,752.6,537.4,752.1z"/>
			<path class="st6" d="M537.2,752.7c0.8,0.2,1.4,0.8,1.7,1.6C538.2,753.9,537.6,753.4,537.2,752.7z"/>
			<path class="st6" d="M533.9,741.1c2.2,0.9,4.3,2.2,6,3.8C537.8,743.8,535.8,742.5,533.9,741.1z"/>
			<path class="st12" d="M535.5,736.1c4.3,9.4,9.1,12.7,11,13.6c-6.4,3.1-6.1,11.3,0.3,13.5c6.4,2.2,8.3-10.7,8.1-15.4
				C554.7,743.2,546.3,732.9,535.5,736.1z"/>
			<path class="st10" d="M526.1,756.8c3.9,0.5,7.7,1.3,11.5,2.4c-1.6,1.8-3.8,2.9-8.1,1.8C525.2,759.9,526.1,756.8,526.1,756.8z"/>
			<path class="st7" d="M536.3,751.9c-0.4,0.7-1,1-1.4,0.8c-0.4-0.2-0.5-1-0.1-1.6s1-1,1.4-0.8C536.6,750.5,536.7,751.2,536.3,751.9
				z"/>
			<path class="st7" d="M528.9,747.7c-0.4,0.7-1,1-1.4,0.7c-0.4-0.2-0.5-1-0.1-1.6c0.4-0.6,1-1,1.4-0.7
				C529.2,746.4,529.2,747,528.9,747.7z"/>
			<path class="st7" d="M528.9,746.2l-1.3-1.3C527.6,744.9,527.7,746.6,528.9,746.2z"/>
			<path class="st14" d="M530.5,750.2c-1.4,1.2-3,2.1-4.7,2.9c0.4,1.3,2.1,1.8,2.1,1.8L530.5,750.2z"/>
			<path class="st13" d="M548.6,765c-1.5,0.9-3.4,1.2-5.1,0.8c-2.3-0.6-2.3-2.9-0.7-4.5c1.6-1.6,4.4-2.8,6.3-1.4
				c1.3,1.1,1.5,3.1,0.4,4.4C549.2,764.6,548.9,764.8,548.6,765z"/>
			<path class="st7" d="M539.8,750.9c-0.2-0.1-0.3-0.3-0.3-0.4c0-1.5-0.7-2.8-1.8-3.8c-0.2-0.2-0.2-0.4,0-0.6c0,0,0,0,0,0
				c0.2-0.2,0.4-0.2,0.6,0c0,0,0,0,0,0c1.3,1.1,2.1,2.8,2.1,4.6c0,0.2-0.2,0.4-0.5,0.4c0,0,0,0,0,0L539.8,750.9z"/>
			<path class="st7" d="M528.3,742.9c-0.2,0-0.3-0.1-0.3-0.3c-0.1-0.2,0-0.5,0.2-0.6c0,0,0,0,0,0c1.3-0.5,2.8-0.4,4,0.4
				c0.2,0.1,0.2,0.4,0.1,0.6c-0.2,0.2-0.4,0.2-0.6,0.1c-1-0.6-2.2-0.7-3.2-0.2C528.4,742.9,528.3,742.9,528.3,742.9z"/>
			<path class="st7" d="M536.3,750.4l-1.3-1.3C535,749.1,535.1,750.8,536.3,750.4z"/>
			<path class="st7" d="M440.1,761.6c-3.5,0.3-6.2,3.4-5.9,6.9c0,0.5,0.1,1,0.3,1.5c5.6,16.3,23.8,27.3,44.4,25.6
				s36.8-15.6,39.6-32.6c0.5-3.5-1.8-6.8-5.3-7.3c-0.5-0.1-1-0.1-1.6-0.1L440.1,761.6z"/>
			<path class="st13" d="M554.3,796.7c-1.7,3.1-3.4,5.7-5.2,8.4c-1.9,2.7-3.9,5.3-6,7.8c-2.2,2.6-4.6,5-7.1,7.3
				c-1.3,1.2-2.7,2.3-4.2,3.3c-0.7,0.5-1.6,1-2.3,1.6l-1.3,0.7l-1,0.5c-0.4,0.2-0.8,0.3-1.3,0.5c-1.9,0.6-3.9,0.6-5.7,0.1
				c-1.5-0.4-2.9-1.1-4.1-2.1c-1.7-1.4-3.2-3-4.4-4.8c-1.9-2.9-3.4-6-4.7-9.3c-2.3-6.1-3.9-12.3-4.9-18.7c-0.3-1.9,1-3.7,2.9-4
				c1.6-0.2,3.1,0.6,3.7,2v0.1c2.4,5.5,5,11.1,7.8,16.2c1.3,2.4,2.8,4.7,4.5,6.8c0.6,0.7,1.3,1.4,2,1.9c0.2,0.1,0.3,0,0,0
				c-0.4-0.1-0.8-0.1-1.2,0c-0.1,0-0.1,0-0.2,0c0,0-0.2,0.1,0,0l0.7-0.5c0.5-0.4,1-0.7,1.5-1.1c1-0.8,1.9-1.7,2.9-2.7
				c1.9-2,3.8-4.1,5.5-6.3c1.7-2.3,3.4-4.7,5.1-7s3.2-5,4.7-7.3l0.1-0.2c1.9-3.3,6.2-4.5,9.5-2.6c3.3,1.9,4.5,6.2,2.6,9.5
				L554.3,796.7z"/>
			<path class="st5" d="M548.9,784.4c-9.3,0.1-16.8,18.5-16.8,18.5l14.3,16.2c0,0,7.6-10.7,9.1-15.7
				C556.9,798.4,555.9,784.3,548.9,784.4z"/>
			<path class="st13" d="M497,783.8l3.3-3.5c0.8-0.8,2.1-0.9,2.9-0.2c0,0,0,0,0,0l2.6,2.4c1,0.9,1.7,2.1,2,3.5l1.8,8.2l-4.5,2.6
				c-2-1.5-3.7-3.4-5-5.6l-3.2-4.7C496.2,785.6,496.3,784.5,497,783.8z"/>
			<path class="st10" d="M545.6,766.5c0,1.2-1,2.1-2.2,2s-2.1-1-2-2.2c0-1.1,0.9-2,2.1-2c1.2,0,2.1,0.9,2.2,2
				C545.6,766.4,545.6,766.5,545.6,766.5z"/>
		</g>
	</g>
</g>
<g id="freepik--character-3--inject-228">
	
		<image style="overflow:visible;opacity:0.5;" width="703" height="1438" xlink:href="228CDD2.png"  transform="matrix(0.24 0 0 0.24 533.7119 563.7592)">
	</image>
	<g>
		<g>
			<path class="st15" d="M650.2,643.6c0.9,1.3,1.6,2.3,2.3,3.5c0.7,1.2,1.3,2.3,2,3.5c1.3,2.3,2.4,4.7,3.5,7.1
				c1.1,2.5,2,4.9,2.9,7.4c0.4,1.2,0.8,2.5,1.2,3.8l0.5,1.9c0.2,0.7,0.3,1.1,0.6,2.3c0.3,1.8,0.3,3.6,0,5.3c-0.2,1.5-0.6,3-1.1,4.4
				c-0.9,2.6-2,5.1-3.3,7.6c-2.5,4.6-5.5,9-8.9,13c-0.9,1.2-2.7,1.4-3.9,0.5c-1.1-0.8-1.4-2.3-0.8-3.5v-0.1c1.1-2.2,2.2-4.4,3.1-6.7
				s1.9-4.5,2.7-6.7c0.8-2.1,1.5-4.4,2-6.6c0.5-1.7,0.5-3.5,0.2-5.2l-1.1-3c-0.5-1.1-0.9-2.2-1.3-3.3c-0.9-2.2-1.9-4.4-3-6.5
				c-1-2.2-2.2-4.3-3.3-6.4c-0.6-1-1.1-2.1-1.8-3.1l-1.8-2.9l-0.2-0.2c-1.6-2.6-0.8-6,1.8-7.7c2.5-1.6,5.8-0.9,7.5,1.6L650.2,643.6z
				"/>
			<path class="st15" d="M647.9,712.3l2.3-1.8c0.9-0.7,1.3-1.7,1.3-2.8l-0.2-5.1c-0.1-2-1.2-3.9-2.9-5l-1.1-0.7
				c-4,2.7-6.3,8.6-6.3,8.6l-0.8,1.6c-0.8,1.4-0.3,3.1,1.1,3.8c0,0,0,0,0,0l3.1,1.7C645.5,713.2,646.9,713.1,647.9,712.3z"/>
			<path class="st15" d="M635.5,614c-1.6,5.7-3.4,16.1,0.3,19.9c0,0,2.8,5.3-14,4.5c-11.8-0.6-3.8-4.5-3.8-4.5
				c6.5-1.6,6.7-6.2,5.9-10.7L635.5,614z"/>
			<path class="st15" d="M660.2,852.2l10.9-4c1.1,7.2,2.5,14.3,4.4,21.3l-7.6,3.3C667.8,872.7,662.7,857.4,660.2,852.2z"/>
			<path class="st7" d="M666,885.3c5.8-4.3,5.3-4.1,8.6-6.6c2.7-2.2,3.6-2.3,5.9-4c1.9-1.4,0.6-3.3-1.3-5c-0.7-0.7-1.7-1.4-2.7-2.4
				c-0.6-0.6-1.5-0.6-2.2-0.1l-6.8,5c-0.5,0.4-0.8,0.9-0.8,1.6c-0.1,3.3-1.5,6.5-4,8.8C659.7,885.3,663.7,887,666,885.3z"/>
			<path class="st5" d="M613,694.3c0,0,11.5,59.1,20.4,86.6c9.3,28.9,23,61.1,29.2,79.9c1.9,0.2,7.4-2,10.1-4.3
				c0,0-4.1-49.4-18.1-74.9c1.4-74.4-12.7-87.3-12.7-87.3H613z"/>
			<path class="st6" d="M634.3,716.5L622.5,739c2.7,11.8,5.7,24.1,8.6,34.1C639.7,749.1,634.3,716.5,634.3,716.5z"/>
			<path class="st7" d="M660.2,857.3c0.4,1.3,0.6,2.6,0.8,3.9c0,0.4,0.4,0.7,0.8,0.7c0.1,0,0.1,0,0.2,0c4-1.3,7.9-3.1,11.5-5.4
				c0.3-0.2,0.5-0.6,0.5-0.9l-0.5-3.8c-0.1-0.4-0.5-0.7-0.9-0.6c-0.1,0-0.2,0-0.2,0.1l-11.5,5C660.4,856.4,660.1,856.8,660.2,857.3z
				"/>
			<path class="st16" d="M660.2,857.3c0.4,1.3,0.6,2.6,0.8,3.9c0,0.4,0.4,0.7,0.8,0.7c0.1,0,0.1,0,0.2,0c4-1.3,7.9-3.1,11.5-5.4
				c0.3-0.2,0.5-0.6,0.5-0.9l-0.5-3.8c-0.1-0.4-0.5-0.7-0.9-0.6c-0.1,0-0.2,0-0.2,0.1l-11.5,5C660.4,856.4,660.1,856.8,660.2,857.3z
				"/>
			<path class="st15" d="M603.5,857.3l10.4,0.8c-1.7,8.3-3.5,21.5-3.5,21.5h-8.3C602.1,879.6,603.6,863,603.5,857.3z"/>
			<path class="st7" d="M593.4,887.8c7.2,0,6.7-0.1,10.8-0.2c3.5-0.1,4.3,0.3,7.1,0.2c2.3,0,2.2-2.3,1.6-4.9c-0.3-1-0.7-2.1-1.1-3.5
				c-0.2-0.8-1-1.4-1.8-1.4h-8.4c-0.6,0-1.2,0.3-1.6,0.8c-1.9,2.7-4.8,4.3-8,4.7C587.9,884.1,590.5,887.8,593.4,887.8z"/>
			<path class="st5" d="M604.1,694.3c0,0-1.3,51.5-2.5,83.5c-1.2,32.1,1.3,88.7,1.3,88.7c0.2,1.6,8.4,0.9,9.8,0
				c0,0,15.6-45.9,9.6-85.6c20.9-51.5,14.9-85.3,14.9-85.3L604.1,694.3z"/>
			<path class="st7" d="M601.9,862.2c0,1.1-0.1,2.9-0.2,4.3c0,0.5,0.3,0.9,0.8,0.9c3.6,0.3,7.2,0.3,10.9-0.1c0.4,0,0.6-0.3,0.7-0.7
				l0.7-3.8c0.1-0.5-0.2-0.9-0.7-1c0,0-0.1,0-0.1,0l-11.1-0.4c-0.4-0.1-0.8,0.2-0.9,0.7C601.9,862.2,601.9,862.2,601.9,862.2z"/>
			<path class="st16" d="M601.9,862.2c0,1.1-0.1,2.9-0.2,4.3c0,0.5,0.3,0.9,0.8,0.9c3.6,0.3,7.2,0.3,10.9-0.1c0.4,0,0.6-0.3,0.7-0.7
				l0.7-3.8c0.1-0.5-0.2-0.9-0.7-1c0,0-0.1,0-0.1,0l-11.1-0.4c-0.4-0.1-0.8,0.2-0.9,0.7C601.9,862.2,601.9,862.2,601.9,862.2z"/>
			<path class="st15" d="M639.8,685.3c0.2,3,0.6,6,1.1,9h-36.4l-0.4-9.3C604.1,685,632.2,683.5,639.8,685.3z"/>
			<path class="st7" d="M600.6,647.5c-0.2,5.6-0.1,11.2,0.2,16.8c0.3,7.3-1.1,9.1,0,21c4,2.3,30.2,2.2,43.1,0.6
				c-0.8-10.3-1.7-17.3,5.3-40.6c1.4-4.5-1.1-9.3-5.7-10.7c-0.7-0.2-1.4-0.3-2.1-0.4c-1.6-0.2-3.2-0.3-4.9-0.4
				c-5.9-0.4-11.8-0.4-17.7,0c-1.9,0.2-3.9,0.4-5.8,0.7C606.4,635.3,601.2,640.8,600.6,647.5z"/>
			<path class="st10" d="M556.6,623.9c0.3,5.9-0.7,11.9-3.1,17.3c-0.6,1.3-0.5,2.9,0.4,4c5.6,7.5,16,4.8,20.2,3.3
				c1.1-0.4,2-1.3,2.4-2.5c1.8-5.4,3.5-12.1,2-19.1c-0.1-0.6-0.3-1.1-0.7-1.6c-3.5-4.2-11.2-4.7-16.6-5.5c-2.1-0.4-4.1,1-4.5,3.2
				C556.6,623.4,556.6,623.6,556.6,623.9z"/>
			<ellipse class="st10" cx="576.5" cy="605.7" rx="6.3" ry="7.9"/>
			<path class="st10" d="M550.7,628.1c-3.1,0.6-3.4,1.1-3.9,4.9c-0.5-3.8-0.9-4.3-3.9-4.9c3-0.6,3.4-1.1,3.9-4.9
				C547.3,626.9,547.7,627.4,550.7,628.1z"/>
			<path class="st15" d="M571.7,625.2l1.6,2.4c0.6,0.9,0.7,2.1,0.3,3.1l-1.9,4.8c-0.7,1.9-2.4,3.3-4.3,3.8l-1.2,0.3
				c-2.9-3.9-3.2-10.2-3.2-10.2l-0.3-1.8c-0.3-1.5,0.7-3,2.2-3.3c0,0,0,0,0,0l3.5-0.6C569.7,623.6,571,624.1,571.7,625.2z"/>
			<path class="st15" d="M604.8,651.8c-0.4,0.4-0.5,0.6-0.8,0.8l-0.7,0.6c-0.4,0.4-0.9,0.8-1.3,1.1c-0.9,0.7-1.7,1.3-2.6,2
				c-1.8,1.2-3.6,2.2-5.5,3.1c-1.9,0.9-3.8,1.7-5.8,2.3c-1.9,0.6-3.9,1.1-5.9,1.6l-0.3,0.1c-0.2,0-0.5,0.1-0.7,0.1
				c-1.2,0-2.5-0.2-3.6-0.6c-1-0.4-1.9-0.9-2.7-1.6c-1.2-1-2.3-2.2-3.1-3.6c-1.4-2.2-2.4-4.6-3.2-7c-0.7-2.3-1.3-4.6-1.8-6.9
				c-0.4-2.3-0.8-4.6-0.9-7c-0.1-1.5,1-2.9,2.5-3c1.2-0.1,2.4,0.6,2.8,1.8v0.1c0.8,2,1.6,4,2.4,6c0.8,2,1.7,3.9,2.7,5.7
				c0.9,1.7,1.9,3.3,3.1,4.8c0.4,0.5,0.9,0.9,1.4,1.3c0.4,0.2,0.3,0,0,0l-1.1,0.2c1.6-0.6,3.2-1.2,4.8-1.8c1.6-0.7,3.1-1.4,4.5-2.2
				c1.4-0.8,2.8-1.6,4.2-2.6c0.7-0.4,1.3-0.9,1.9-1.4c0.3-0.2,0.6-0.5,0.9-0.7l0.4-0.3c0.1,0,0.3-0.3,0.2-0.2
				c1.9-2.4,5.4-2.8,7.8-0.9c2.4,1.9,2.8,5.4,0.9,7.8c-0.1,0.1-0.2,0.3-0.4,0.4L604.8,651.8z"/>
			<path class="st7" d="M614.8,634.3c-7.3-0.2-14.8,4-26.1,13.3c-0.2,5,8.5,13.4,8.5,13.4S624.5,645.9,614.8,634.3z"/>
			<path class="st7" d="M616.9,603.4c-0.3,0.7-0.9,1.2-1.3,1.1c-0.5-0.1-0.7-0.9-0.4-1.6c0.3-0.7,0.9-1.2,1.3-1.1
				C617,602,617.2,602.7,616.9,603.4z"/>
			<path class="st7" d="M616.7,601.9l-1.6-1C615.2,600.9,615.6,602.5,616.7,601.9z"/>
			<path class="st17" d="M616.3,604.8c-1.3,1.5-2.7,2.8-4.3,4c0.6,0.8,1.5,1.2,2.4,1.2L616.3,604.8z"/>
			<path class="st7" d="M618,597.3c-0.1,0-0.2-0.1-0.3-0.2c-0.1-0.2,0-0.5,0.2-0.6c1.3-0.8,2.8-1,4.2-0.5c0.2,0.1,0.3,0.3,0.2,0.6
				c0,0,0,0,0,0c-0.1,0.2-0.4,0.3-0.6,0.2c-1.1-0.4-2.4-0.2-3.3,0.4C618.3,597.3,618.2,597.3,618,597.3z"/>
			<path class="st15" d="M642.3,607.6c-3.5,8.7-4.9,12.4-10.9,15.7c-9.1,4.9-19-0.7-18.1-10.1c0.8-8.4,6.4-21.2,16.3-22.3
				c6.6-0.9,12.6,3.6,13.5,10.2C643.5,603.3,643.2,605.6,642.3,607.6z"/>
			<path class="st7" d="M623.6,607.4c-5.1-7.6-0.7-11.5,1.5-12.7c-4.8-1.4-8.3-2.7-7.9-7.1c0.6-4.1,4.5-6.8,8.5-6.2
				c0.3,0,0.5,0.1,0.8,0.2c-1.1,0.9,3.8,7.1,7.9,5.1c5.7-2.1,12.1,0.1,15.2,5.3c3.3,6,2.3,17.1-6.4,22c3.3,5.1-7.4,12-15,9.3
				S617.4,609.8,623.6,607.4z"/>
			<path class="st10" d="M655.3,590.2c2,5.5-0.4,10.6-5.3,11.7c-4.5,0.9-10.2-1.7-10.7-7c-0.4-4.6,1.3-9.9,5.3-11.7
				C648.9,581.3,653.3,584.7,655.3,590.2z"/>
			<path class="st7" d="M671.8,588c0.8,7.5-4.6,14.3-12.1,15.1c-1,0.1-2,0.1-3,0c-8.4-0.6-17.1-7-15.1-15.1
				c1.6-7,7.3-14.3,15.1-15.1C665.3,571.9,671.3,579,671.8,588z"/>
			<path class="st15" d="M625.8,607.9c-0.9,1.6-2.5,2.6-4.2,3c-2.2,0.4-2.9-2.2-1.9-4.6c0.9-2.1,3.1-4.9,5.1-4.1
				C626.7,602.9,627.2,605.8,625.8,607.9z"/>
			<path class="st7" d="M641.9,634.3c6.3,1,8.9,2.9,14.1,15.7c-2.4,4.8-13.4,9.3-13.4,9.3S635.3,642.8,641.9,634.3z"/>
			<path class="st7" d="M604.1,697.1c13,1.5,26.1,1.5,39.2,0c0.5-0.1,0.8-0.5,0.7-1c0-0.1,0-0.1-0.1-0.2c-0.3-0.7-0.6-1.6-0.9-2.2
				c-0.1-0.3-0.5-0.5-0.8-0.5c-12.5,1.4-25.1,1.4-37.6,0c-0.5,0-0.9,0.3-0.9,0.8c0,0,0,0,0,0l-0.2,2.3
				C603.3,696.6,603.6,697,604.1,697.1z"/>
		</g>
	</g>
</g>
</svg>
